<?xml version="1.0" encoding="utf-8" standalone="no"?>
<!DOCTYPE svg PUBLIC "-//W3C//DTD SVG 1.1//EN"
  "http://www.w3.org/Graphics/SVG/1.1/DTD/svg11.dtd">
<svg xmlns:xlink="http://www.w3.org/1999/xlink" width="928.431875pt" height="279.938906pt" viewBox="0 0 928.431875 279.938906" xmlns="http://www.w3.org/2000/svg" version="1.1">
 <metadata>
  <rdf:RDF xmlns:dc="http://purl.org/dc/elements/1.1/" xmlns:cc="http://creativecommons.org/ns#" xmlns:rdf="http://www.w3.org/1999/02/22-rdf-syntax-ns#">
   <cc:Work>
    <dc:type rdf:resource="http://purl.org/dc/dcmitype/StillImage"/>
    <dc:date>2026-07-01T10:47:36.642617</dc:date>
    <dc:format>image/svg+xml</dc:format>
    <dc:creator>
     <cc:Agent>
      <dc:title>Matplotlib v3.9.2, https://matplotlib.org/</dc:title>
     </cc:Agent>
    </dc:creator>
   </cc:Work>
  </rdf:RDF>
 </metadata>
 <defs>
  <style type="text/css">*{stroke-linejoin: round; stroke-linecap: butt}</style>
 </defs>
 <g id="figure_1">
  <g id="patch_1">
   <path d="M 0 279.938906 
L 928.431875 279.938906 
L 928.431875 0 
L 0 0 
z
" style="fill: #080d1a"/>
  </g>
  <g id="axes_1">
   <g id="patch_2">
    <path d="M 39.971875 242.207656 
L 921.231875 242.207656 
L 921.231875 23.756406 
L 39.971875 23.756406 
z
" style="fill: #080d1a"/>
   </g>
   <g id="PolyCollection_1">
    <defs>
     <path id="m04d93b3d62" d="M 39.971875 -47.660852 
L 39.971875 -82.820093 
L 50.1013 -80.013763 
L 60.230726 -77.210809 
L 70.360151 -74.412316 
L 80.489576 -71.619873 
L 90.619001 -68.285179 
L 100.748427 -64.85927 
L 110.877852 -61.43324 
L 121.007277 -58.007097 
L 131.136703 -54.580866 
L 141.266128 -51.154666 
L 151.395553 -47.749476 
L 161.524978 -51.021295 
L 171.654404 -54.657186 
L 181.783829 -58.457413 
L 191.913254 -62.260783 
L 202.04268 -66.065436 
L 212.172105 -69.703451 
L 222.30153 -73.120969 
L 232.430955 -76.365354 
L 242.560381 -72.938265 
L 252.689806 -69.51128 
L 262.819231 -66.084528 
L 272.948657 -62.658256 
L 283.078082 -59.233008 
L 293.207507 -56.001084 
L 303.336932 -53.916099 
L 313.466358 -51.831065 
L 323.595783 -49.745983 
L 333.725208 -47.660852 
L 343.854634 -49.940752 
L 353.984059 -52.220674 
L 364.113484 -54.50062 
L 374.242909 -56.780589 
L 384.372335 -59.873333 
L 394.50176 -63.145637 
L 404.631185 -63.392817 
L 414.760611 -60.053708 
L 424.890036 -57.127547 
L 435.019461 -54.366433 
L 445.148886 -51.605314 
L 455.278312 -48.844192 
L 465.407737 -49.544264 
L 475.537162 -52.840293 
L 485.666588 -56.136397 
L 495.796013 -59.432575 
L 505.925438 -62.517016 
L 516.054864 -65.234382 
L 526.184289 -62.416357 
L 536.313714 -59.598263 
L 546.443139 -56.900879 
L 556.572565 -54.505388 
L 566.70199 -52.109847 
L 576.831415 -49.714256 
L 586.960841 -48.12388 
L 597.090266 -51.365117 
L 607.219691 -54.60644 
L 617.349116 -57.847854 
L 627.478542 -61.089359 
L 637.607967 -63.908134 
L 647.737392 -66.726977 
L 657.866818 -69.545886 
L 667.996243 -72.364865 
L 678.125668 -74.723146 
L 688.255093 -77.018479 
L 698.384519 -79.325634 
L 708.513944 -81.642208 
L 718.643369 -84.969133 
L 728.772795 -83.00997 
L 738.90222 -80.377812 
L 749.031645 -77.98137 
L 759.16107 -75.880792 
L 769.290496 -74.146599 
L 779.419921 -72.854597 
L 789.549346 -72.075126 
L 799.678772 -68.944322 
L 809.808197 -63.529448 
L 819.937622 -57.683443 
L 830.067047 -51.837065 
L 840.196473 -48.835383 
L 850.325898 -52.946363 
L 860.455323 -55.296377 
L 870.584749 -51.185021 
L 880.714174 -48.31103 
L 890.843599 -52.862404 
L 900.973024 -57.414008 
L 911.10245 -61.965843 
L 921.231875 -66.517909 
L 921.231875 -47.660852 
L 921.231875 -47.660852 
L 911.10245 -47.660852 
L 900.973024 -47.660852 
L 890.843599 -47.660852 
L 880.714174 -47.660852 
L 870.584749 -47.660852 
L 860.455323 -47.660852 
L 850.325898 -47.660852 
L 840.196473 -47.660852 
L 830.067047 -47.660852 
L 819.937622 -47.660852 
L 809.808197 -47.660852 
L 799.678772 -47.660852 
L 789.549346 -47.660852 
L 779.419921 -47.660852 
L 769.290496 -47.660852 
L 759.16107 -47.660852 
L 749.031645 -47.660852 
L 738.90222 -47.660852 
L 728.772795 -47.660852 
L 718.643369 -47.660852 
L 708.513944 -47.660852 
L 698.384519 -47.660852 
L 688.255093 -47.660852 
L 678.125668 -47.660852 
L 667.996243 -47.660852 
L 657.866818 -47.660852 
L 647.737392 -47.660852 
L 637.607967 -47.660852 
L 627.478542 -47.660852 
L 617.349116 -47.660852 
L 607.219691 -47.660852 
L 597.090266 -47.660852 
L 586.960841 -47.660852 
L 576.831415 -47.660852 
L 566.70199 -47.660852 
L 556.572565 -47.660852 
L 546.443139 -47.660852 
L 536.313714 -47.660852 
L 526.184289 -47.660852 
L 516.054864 -47.660852 
L 505.925438 -47.660852 
L 495.796013 -47.660852 
L 485.666588 -47.660852 
L 475.537162 -47.660852 
L 465.407737 -47.660852 
L 455.278312 -47.660852 
L 445.148886 -47.660852 
L 435.019461 -47.660852 
L 424.890036 -47.660852 
L 414.760611 -47.660852 
L 404.631185 -47.660852 
L 394.50176 -47.660852 
L 384.372335 -47.660852 
L 374.242909 -47.660852 
L 364.113484 -47.660852 
L 353.984059 -47.660852 
L 343.854634 -47.660852 
L 333.725208 -47.660852 
L 323.595783 -47.660852 
L 313.466358 -47.660852 
L 303.336932 -47.660852 
L 293.207507 -47.660852 
L 283.078082 -47.660852 
L 272.948657 -47.660852 
L 262.819231 -47.660852 
L 252.689806 -47.660852 
L 242.560381 -47.660852 
L 232.430955 -47.660852 
L 222.30153 -47.660852 
L 212.172105 -47.660852 
L 202.04268 -47.660852 
L 191.913254 -47.660852 
L 181.783829 -47.660852 
L 171.654404 -47.660852 
L 161.524978 -47.660852 
L 151.395553 -47.660852 
L 141.266128 -47.660852 
L 131.136703 -47.660852 
L 121.007277 -47.660852 
L 110.877852 -47.660852 
L 100.748427 -47.660852 
L 90.619001 -47.660852 
L 80.489576 -47.660852 
L 70.360151 -47.660852 
L 60.230726 -47.660852 
L 50.1013 -47.660852 
L 39.971875 -47.660852 
z
" style="stroke: #d4622a; stroke-opacity: 0.15"/>
    </defs>
    <g clip-path="url(#p21aebd1ec4)">
     <use xlink:href="#m04d93b3d62" x="0" y="279.938906" style="fill: #d4622a; fill-opacity: 0.15; stroke: #d4622a; stroke-opacity: 0.15"/>
    </g>
   </g>
   <g id="PolyCollection_2"/>
   <g id="matplotlib.axis_1">
    <g id="xtick_1">
     <g id="line2d_1">
      <defs>
       <path id="m7a8561fabb" d="M 0 0 
L 0 3.5 
" style="stroke: #e2e8f0; stroke-width: 0.8"/>
      </defs>
      <g>
       <use xlink:href="#m7a8561fabb" x="39.971875" y="242.207656" style="fill: #e2e8f0; stroke: #e2e8f0; stroke-width: 0.8"/>
      </g>
     </g>
     <g id="text_1">
      <!-- 0 -->
      <g style="fill: #e2e8f0" transform="translate(36.961719 256.859219) scale(0.1 -0.1)">
       <defs>
        <path id="DejaVuSansMono-30" d="M 1509 2344 
Q 1509 2516 1629 2641 
Q 1750 2766 1919 2766 
Q 2094 2766 2219 2641 
Q 2344 2516 2344 2344 
Q 2344 2169 2220 2047 
Q 2097 1925 1919 1925 
Q 1744 1925 1626 2044 
Q 1509 2163 1509 2344 
z
M 1925 4250 
Q 1484 4250 1267 3775 
Q 1050 3300 1050 2328 
Q 1050 1359 1267 884 
Q 1484 409 1925 409 
Q 2369 409 2586 884 
Q 2803 1359 2803 2328 
Q 2803 3300 2586 3775 
Q 2369 4250 1925 4250 
z
M 1925 4750 
Q 2672 4750 3055 4137 
Q 3438 3525 3438 2328 
Q 3438 1134 3055 521 
Q 2672 -91 1925 -91 
Q 1178 -91 797 521 
Q 416 1134 416 2328 
Q 416 3525 797 4137 
Q 1178 4750 1925 4750 
z
" transform="scale(0.015625)"/>
       </defs>
       <use xlink:href="#DejaVuSansMono-30"/>
      </g>
     </g>
    </g>
    <g id="xtick_2">
     <g id="line2d_2">
      <g>
       <use xlink:href="#m7a8561fabb" x="140.907646" y="242.207656" style="fill: #e2e8f0; stroke: #e2e8f0; stroke-width: 0.8"/>
      </g>
     </g>
     <g id="text_2">
      <!-- 5 -->
      <g style="fill: #e2e8f0" transform="translate(137.89749 256.859219) scale(0.1 -0.1)">
       <defs>
        <path id="DejaVuSansMono-35" d="M 647 4666 
L 3009 4666 
L 3009 4134 
L 1222 4134 
L 1222 2988 
Q 1356 3038 1492 3061 
Q 1628 3084 1766 3084 
Q 2491 3084 2916 2656 
Q 3341 2228 3341 1497 
Q 3341 759 2895 334 
Q 2450 -91 1678 -91 
Q 1306 -91 998 -41 
Q 691 9 447 109 
L 447 750 
Q 734 594 1025 517 
Q 1316 441 1619 441 
Q 2141 441 2423 716 
Q 2706 991 2706 1497 
Q 2706 1997 2414 2275 
Q 2122 2553 1600 2553 
Q 1347 2553 1106 2495 
Q 866 2438 647 2322 
L 647 4666 
z
" transform="scale(0.015625)"/>
       </defs>
       <use xlink:href="#DejaVuSansMono-35"/>
      </g>
     </g>
    </g>
    <g id="xtick_3">
     <g id="line2d_3">
      <g>
       <use xlink:href="#m7a8561fabb" x="241.843417" y="242.207656" style="fill: #e2e8f0; stroke: #e2e8f0; stroke-width: 0.8"/>
      </g>
     </g>
     <g id="text_3">
      <!-- 10 -->
      <g style="fill: #e2e8f0" transform="translate(235.823105 256.859219) scale(0.1 -0.1)">
       <defs>
        <path id="DejaVuSansMono-31" d="M 844 531 
L 1825 531 
L 1825 4097 
L 769 3859 
L 769 4434 
L 1819 4666 
L 2450 4666 
L 2450 531 
L 3419 531 
L 3419 0 
L 844 0 
L 844 531 
z
" transform="scale(0.015625)"/>
       </defs>
       <use xlink:href="#DejaVuSansMono-31"/>
       <use xlink:href="#DejaVuSansMono-30" x="60.205078"/>
      </g>
     </g>
    </g>
    <g id="xtick_4">
     <g id="line2d_4">
      <g>
       <use xlink:href="#m7a8561fabb" x="342.779188" y="242.207656" style="fill: #e2e8f0; stroke: #e2e8f0; stroke-width: 0.8"/>
      </g>
     </g>
     <g id="text_4">
      <!-- 15 -->
      <g style="fill: #e2e8f0" transform="translate(336.758876 256.859219) scale(0.1 -0.1)">
       <use xlink:href="#DejaVuSansMono-31"/>
       <use xlink:href="#DejaVuSansMono-35" x="60.205078"/>
      </g>
     </g>
    </g>
    <g id="xtick_5">
     <g id="line2d_5">
      <g>
       <use xlink:href="#m7a8561fabb" x="443.714959" y="242.207656" style="fill: #e2e8f0; stroke: #e2e8f0; stroke-width: 0.8"/>
      </g>
     </g>
     <g id="text_5">
      <!-- 20 -->
      <g style="fill: #e2e8f0" transform="translate(437.694647 256.859219) scale(0.1 -0.1)">
       <defs>
        <path id="DejaVuSansMono-32" d="M 1166 531 
L 3309 531 
L 3309 0 
L 475 0 
L 475 531 
Q 1059 1147 1496 1619 
Q 1934 2091 2100 2284 
Q 2413 2666 2522 2902 
Q 2631 3138 2631 3384 
Q 2631 3775 2401 3997 
Q 2172 4219 1772 4219 
Q 1488 4219 1175 4116 
Q 863 4013 513 3803 
L 513 4441 
Q 834 4594 1145 4672 
Q 1456 4750 1759 4750 
Q 2444 4750 2861 4386 
Q 3278 4022 3278 3431 
Q 3278 3131 3139 2831 
Q 3000 2531 2688 2169 
Q 2513 1966 2180 1606 
Q 1847 1247 1166 531 
z
" transform="scale(0.015625)"/>
       </defs>
       <use xlink:href="#DejaVuSansMono-32"/>
       <use xlink:href="#DejaVuSansMono-30" x="60.205078"/>
      </g>
     </g>
    </g>
    <g id="xtick_6">
     <g id="line2d_6">
      <g>
       <use xlink:href="#m7a8561fabb" x="544.65073" y="242.207656" style="fill: #e2e8f0; stroke: #e2e8f0; stroke-width: 0.8"/>
      </g>
     </g>
     <g id="text_6">
      <!-- 25 -->
      <g style="fill: #e2e8f0" transform="translate(538.630418 256.859219) scale(0.1 -0.1)">
       <use xlink:href="#DejaVuSansMono-32"/>
       <use xlink:href="#DejaVuSansMono-35" x="60.205078"/>
      </g>
     </g>
    </g>
    <g id="xtick_7">
     <g id="line2d_7">
      <g>
       <use xlink:href="#m7a8561fabb" x="645.586501" y="242.207656" style="fill: #e2e8f0; stroke: #e2e8f0; stroke-width: 0.8"/>
      </g>
     </g>
     <g id="text_7">
      <!-- 30 -->
      <g style="fill: #e2e8f0" transform="translate(639.566189 256.859219) scale(0.1 -0.1)">
       <defs>
        <path id="DejaVuSansMono-33" d="M 2425 2497 
Q 2884 2375 3128 2064 
Q 3372 1753 3372 1288 
Q 3372 644 2939 276 
Q 2506 -91 1741 -91 
Q 1419 -91 1084 -31 
Q 750 28 428 141 
L 428 769 
Q 747 603 1056 522 
Q 1366 441 1672 441 
Q 2191 441 2469 675 
Q 2747 909 2747 1350 
Q 2747 1756 2469 1995 
Q 2191 2234 1716 2234 
L 1234 2234 
L 1234 2753 
L 1716 2753 
Q 2150 2753 2394 2943 
Q 2638 3134 2638 3475 
Q 2638 3834 2411 4026 
Q 2184 4219 1766 4219 
Q 1488 4219 1191 4156 
Q 894 4094 569 3969 
L 569 4550 
Q 947 4650 1242 4700 
Q 1538 4750 1766 4750 
Q 2447 4750 2855 4408 
Q 3263 4066 3263 3500 
Q 3263 3116 3048 2859 
Q 2834 2603 2425 2497 
z
" transform="scale(0.015625)"/>
       </defs>
       <use xlink:href="#DejaVuSansMono-33"/>
       <use xlink:href="#DejaVuSansMono-30" x="60.205078"/>
      </g>
     </g>
    </g>
    <g id="xtick_8">
     <g id="line2d_8">
      <g>
       <use xlink:href="#m7a8561fabb" x="746.522272" y="242.207656" style="fill: #e2e8f0; stroke: #e2e8f0; stroke-width: 0.8"/>
      </g>
     </g>
     <g id="text_8">
      <!-- 35 -->
      <g style="fill: #e2e8f0" transform="translate(740.50196 256.859219) scale(0.1 -0.1)">
       <use xlink:href="#DejaVuSansMono-33"/>
       <use xlink:href="#DejaVuSansMono-35" x="60.205078"/>
      </g>
     </g>
    </g>
    <g id="xtick_9">
     <g id="line2d_9">
      <g>
       <use xlink:href="#m7a8561fabb" x="847.458043" y="242.207656" style="fill: #e2e8f0; stroke: #e2e8f0; stroke-width: 0.8"/>
      </g>
     </g>
     <g id="text_9">
      <!-- 40 -->
      <g style="fill: #e2e8f0" transform="translate(841.437731 256.859219) scale(0.1 -0.1)">
       <defs>
        <path id="DejaVuSansMono-34" d="M 2297 4091 
L 825 1625 
L 2297 1625 
L 2297 4091 
z
M 2194 4666 
L 2925 4666 
L 2925 1625 
L 3547 1625 
L 3547 1113 
L 2925 1113 
L 2925 0 
L 2297 0 
L 2297 1113 
L 319 1113 
L 319 1709 
L 2194 4666 
z
" transform="scale(0.015625)"/>
       </defs>
       <use xlink:href="#DejaVuSansMono-34"/>
       <use xlink:href="#DejaVuSansMono-30" x="60.205078"/>
      </g>
     </g>
    </g>
    <g id="text_10">
     <!-- Distance along energy-optimal route (miles) -->
     <g style="fill: #e2e8f0" transform="translate(351.165156 270.590469) scale(0.1 -0.1)">
      <defs>
       <path id="DejaVuSansMono-44" d="M 1363 519 
Q 2159 519 2475 911 
Q 2791 1303 2791 2328 
Q 2791 3363 2477 3755 
Q 2163 4147 1363 4147 
L 1063 4147 
L 1063 519 
L 1363 519 
z
M 1375 4666 
Q 2444 4666 2950 4097 
Q 3456 3528 3456 2328 
Q 3456 1134 2950 567 
Q 2444 0 1375 0 
L 428 0 
L 428 4666 
L 1375 4666 
z
" transform="scale(0.015625)"/>
       <path id="DejaVuSansMono-69" d="M 800 3500 
L 2272 3500 
L 2272 447 
L 3413 447 
L 3413 0 
L 556 0 
L 556 447 
L 1697 447 
L 1697 3053 
L 800 3053 
L 800 3500 
z
M 1697 4863 
L 2272 4863 
L 2272 4134 
L 1697 4134 
L 1697 4863 
z
" transform="scale(0.015625)"/>
       <path id="DejaVuSansMono-73" d="M 3041 3378 
L 3041 2816 
Q 2794 2959 2544 3031 
Q 2294 3103 2034 3103 
Q 1644 3103 1451 2976 
Q 1259 2850 1259 2591 
Q 1259 2356 1403 2240 
Q 1547 2125 2119 2016 
L 2350 1972 
Q 2778 1891 2998 1647 
Q 3219 1403 3219 1013 
Q 3219 494 2850 201 
Q 2481 -91 1825 -91 
Q 1566 -91 1281 -36 
Q 997 19 666 128 
L 666 722 
Q 988 556 1281 473 
Q 1575 391 1838 391 
Q 2219 391 2428 545 
Q 2638 700 2638 978 
Q 2638 1378 1872 1531 
L 1847 1538 
L 1631 1581 
Q 1134 1678 906 1908 
Q 678 2138 678 2534 
Q 678 3038 1018 3311 
Q 1359 3584 1991 3584 
Q 2272 3584 2531 3532 
Q 2791 3481 3041 3378 
z
" transform="scale(0.015625)"/>
       <path id="DejaVuSansMono-74" d="M 1919 4494 
L 1919 3500 
L 3225 3500 
L 3225 3053 
L 1919 3053 
L 1919 1153 
Q 1919 766 2066 612 
Q 2213 459 2578 459 
L 3225 459 
L 3225 0 
L 2522 0 
Q 1875 0 1609 259 
Q 1344 519 1344 1153 
L 1344 3053 
L 409 3053 
L 409 3500 
L 1344 3500 
L 1344 4494 
L 1919 4494 
z
" transform="scale(0.015625)"/>
       <path id="DejaVuSansMono-61" d="M 2194 1759 
L 2003 1759 
Q 1500 1759 1245 1582 
Q 991 1406 991 1056 
Q 991 741 1181 566 
Q 1372 391 1709 391 
Q 2184 391 2456 720 
Q 2728 1050 2731 1631 
L 2731 1759 
L 2194 1759 
z
M 3309 1997 
L 3309 0 
L 2731 0 
L 2731 519 
Q 2547 206 2267 57 
Q 1988 -91 1588 -91 
Q 1053 -91 734 211 
Q 416 513 416 1019 
Q 416 1603 808 1906 
Q 1200 2209 1959 2209 
L 2731 2209 
L 2731 2300 
Q 2728 2719 2518 2908 
Q 2309 3097 1850 3097 
Q 1556 3097 1256 3012 
Q 956 2928 672 2766 
L 672 3341 
Q 991 3463 1283 3523 
Q 1575 3584 1850 3584 
Q 2284 3584 2592 3456 
Q 2900 3328 3091 3072 
Q 3209 2916 3259 2686 
Q 3309 2456 3309 1997 
z
" transform="scale(0.015625)"/>
       <path id="DejaVuSansMono-6e" d="M 3284 2169 
L 3284 0 
L 2706 0 
L 2706 2169 
Q 2706 2641 2540 2862 
Q 2375 3084 2022 3084 
Q 1619 3084 1401 2798 
Q 1184 2513 1184 1978 
L 1184 0 
L 609 0 
L 609 3500 
L 1184 3500 
L 1184 2975 
Q 1338 3275 1600 3429 
Q 1863 3584 2222 3584 
Q 2756 3584 3020 3232 
Q 3284 2881 3284 2169 
z
" transform="scale(0.015625)"/>
       <path id="DejaVuSansMono-63" d="M 3316 178 
Q 3084 44 2839 -23 
Q 2594 -91 2338 -91 
Q 1525 -91 1067 396 
Q 609 884 609 1747 
Q 609 2609 1067 3096 
Q 1525 3584 2338 3584 
Q 2591 3584 2831 3518 
Q 3072 3453 3316 3316 
L 3316 2713 
Q 3088 2916 2858 3006 
Q 2628 3097 2338 3097 
Q 1797 3097 1506 2747 
Q 1216 2397 1216 1747 
Q 1216 1100 1508 748 
Q 1800 397 2338 397 
Q 2638 397 2875 489 
Q 3113 581 3316 775 
L 3316 178 
z
" transform="scale(0.015625)"/>
       <path id="DejaVuSansMono-65" d="M 3475 1894 
L 3475 1613 
L 984 1613 
L 984 1594 
Q 984 1022 1282 709 
Q 1581 397 2125 397 
Q 2400 397 2700 484 
Q 3000 572 3341 750 
L 3341 178 
Q 3013 44 2708 -23 
Q 2403 -91 2119 -91 
Q 1303 -91 843 398 
Q 384 888 384 1747 
Q 384 2584 834 3084 
Q 1284 3584 2034 3584 
Q 2703 3584 3089 3131 
Q 3475 2678 3475 1894 
z
M 2900 2063 
Q 2888 2569 2661 2833 
Q 2434 3097 2009 3097 
Q 1594 3097 1325 2822 
Q 1056 2547 1006 2059 
L 2900 2063 
z
" transform="scale(0.015625)"/>
       <path id="DejaVuSansMono-20" transform="scale(0.015625)"/>
       <path id="DejaVuSansMono-6c" d="M 1997 1269 
Q 1997 881 2139 684 
Q 2281 488 2559 488 
L 3231 488 
L 3231 0 
L 2503 0 
Q 1988 0 1705 331 
Q 1422 663 1422 1269 
L 1422 4447 
L 500 4447 
L 500 4897 
L 1997 4897 
L 1997 1269 
z
" transform="scale(0.015625)"/>
       <path id="DejaVuSansMono-6f" d="M 1925 3097 
Q 1488 3097 1263 2756 
Q 1038 2416 1038 1747 
Q 1038 1081 1263 739 
Q 1488 397 1925 397 
Q 2366 397 2591 739 
Q 2816 1081 2816 1747 
Q 2816 2416 2591 2756 
Q 2366 3097 1925 3097 
z
M 1925 3584 
Q 2653 3584 3039 3112 
Q 3425 2641 3425 1747 
Q 3425 850 3040 379 
Q 2656 -91 1925 -91 
Q 1197 -91 812 379 
Q 428 850 428 1747 
Q 428 2641 812 3112 
Q 1197 3584 1925 3584 
z
" transform="scale(0.015625)"/>
       <path id="DejaVuSansMono-67" d="M 2681 1778 
Q 2681 2425 2470 2761 
Q 2259 3097 1856 3097 
Q 1434 3097 1212 2761 
Q 991 2425 991 1778 
Q 991 1131 1214 792 
Q 1438 453 1863 453 
Q 2259 453 2470 793 
Q 2681 1134 2681 1778 
z
M 3256 225 
Q 3256 -563 2884 -969 
Q 2513 -1375 1791 -1375 
Q 1553 -1375 1293 -1331 
Q 1034 -1288 775 -1203 
L 775 -634 
Q 1081 -778 1331 -847 
Q 1581 -916 1791 -916 
Q 2256 -916 2468 -662 
Q 2681 -409 2681 141 
L 2681 166 
L 2681 556 
Q 2544 263 2306 119 
Q 2069 -25 1728 -25 
Q 1116 -25 750 465 
Q 384 956 384 1778 
Q 384 2603 750 3093 
Q 1116 3584 1728 3584 
Q 2066 3584 2300 3450 
Q 2534 3316 2681 3034 
L 2681 3488 
L 3256 3488 
L 3256 225 
z
" transform="scale(0.015625)"/>
       <path id="DejaVuSansMono-72" d="M 3609 2778 
Q 3425 2922 3234 2987 
Q 3044 3053 2816 3053 
Q 2278 3053 1993 2715 
Q 1709 2378 1709 1741 
L 1709 0 
L 1131 0 
L 1131 3500 
L 1709 3500 
L 1709 2816 
Q 1853 3188 2151 3386 
Q 2450 3584 2859 3584 
Q 3072 3584 3256 3531 
Q 3441 3478 3609 3366 
L 3609 2778 
z
" transform="scale(0.015625)"/>
       <path id="DejaVuSansMono-79" d="M 2681 1125 
Q 2538 759 2316 163 
Q 2006 -663 1900 -844 
Q 1756 -1088 1540 -1209 
Q 1325 -1331 1038 -1331 
L 575 -1331 
L 575 -850 
L 916 -850 
Q 1169 -850 1312 -703 
Q 1456 -556 1678 56 
L 325 3500 
L 934 3500 
L 1972 763 
L 2994 3500 
L 3603 3500 
L 2681 1125 
z
" transform="scale(0.015625)"/>
       <path id="DejaVuSansMono-2d" d="M 1113 2009 
L 2741 2009 
L 2741 1497 
L 1113 1497 
L 1113 2009 
z
" transform="scale(0.015625)"/>
       <path id="DejaVuSansMono-70" d="M 1172 441 
L 1172 -1331 
L 594 -1331 
L 594 3500 
L 1172 3500 
L 1172 3053 
Q 1316 3313 1555 3448 
Q 1794 3584 2106 3584 
Q 2741 3584 3102 3093 
Q 3463 2603 3463 1734 
Q 3463 881 3100 395 
Q 2738 -91 2106 -91 
Q 1788 -91 1548 45 
Q 1309 181 1172 441 
z
M 2859 1747 
Q 2859 2416 2648 2756 
Q 2438 3097 2022 3097 
Q 1603 3097 1387 2755 
Q 1172 2413 1172 1747 
Q 1172 1084 1387 740 
Q 1603 397 2022 397 
Q 2438 397 2648 737 
Q 2859 1078 2859 1747 
z
" transform="scale(0.015625)"/>
       <path id="DejaVuSansMono-6d" d="M 2113 3144 
Q 2219 3369 2383 3476 
Q 2547 3584 2778 3584 
Q 3200 3584 3373 3257 
Q 3547 2931 3547 2028 
L 3547 0 
L 3022 0 
L 3022 2003 
Q 3022 2744 2939 2923 
Q 2856 3103 2638 3103 
Q 2388 3103 2295 2911 
Q 2203 2719 2203 2003 
L 2203 0 
L 1678 0 
L 1678 2003 
Q 1678 2753 1589 2928 
Q 1500 3103 1269 3103 
Q 1041 3103 952 2911 
Q 863 2719 863 2003 
L 863 0 
L 341 0 
L 341 3500 
L 863 3500 
L 863 3200 
Q 966 3388 1120 3486 
Q 1275 3584 1472 3584 
Q 1709 3584 1867 3475 
Q 2025 3366 2113 3144 
z
" transform="scale(0.015625)"/>
       <path id="DejaVuSansMono-75" d="M 609 1325 
L 609 3494 
L 1184 3494 
L 1184 1325 
Q 1184 853 1351 631 
Q 1519 409 1869 409 
Q 2275 409 2490 695 
Q 2706 981 2706 1516 
L 2706 3494 
L 3284 3494 
L 3284 0 
L 2706 0 
L 2706 525 
Q 2553 222 2289 65 
Q 2025 -91 1672 -91 
Q 1134 -91 871 261 
Q 609 613 609 1325 
z
" transform="scale(0.015625)"/>
       <path id="DejaVuSansMono-28" d="M 2766 4856 
Q 2350 4144 2145 3436 
Q 1941 2728 1941 2009 
Q 1941 1294 2145 584 
Q 2350 -125 2766 -844 
L 2266 -844 
Q 1794 -100 1562 604 
Q 1331 1309 1331 2009 
Q 1331 2706 1562 3412 
Q 1794 4119 2266 4856 
L 2766 4856 
z
" transform="scale(0.015625)"/>
       <path id="DejaVuSansMono-29" d="M 1088 4856 
L 1588 4856 
Q 2059 4119 2290 3412 
Q 2522 2706 2522 2009 
Q 2522 1306 2290 600 
Q 2059 -106 1588 -844 
L 1088 -844 
Q 1503 -119 1708 590 
Q 1913 1300 1913 2009 
Q 1913 2722 1708 3431 
Q 1503 4141 1088 4856 
z
" transform="scale(0.015625)"/>
      </defs>
      <use xlink:href="#DejaVuSansMono-44"/>
      <use xlink:href="#DejaVuSansMono-69" x="60.205078"/>
      <use xlink:href="#DejaVuSansMono-73" x="120.410156"/>
      <use xlink:href="#DejaVuSansMono-74" x="180.615234"/>
      <use xlink:href="#DejaVuSansMono-61" x="240.820312"/>
      <use xlink:href="#DejaVuSansMono-6e" x="301.025391"/>
      <use xlink:href="#DejaVuSansMono-63" x="361.230469"/>
      <use xlink:href="#DejaVuSansMono-65" x="421.435547"/>
      <use xlink:href="#DejaVuSansMono-20" x="481.640625"/>
      <use xlink:href="#DejaVuSansMono-61" x="541.845703"/>
      <use xlink:href="#DejaVuSansMono-6c" x="602.050781"/>
      <use xlink:href="#DejaVuSansMono-6f" x="662.255859"/>
      <use xlink:href="#DejaVuSansMono-6e" x="722.460938"/>
      <use xlink:href="#DejaVuSansMono-67" x="782.666016"/>
      <use xlink:href="#DejaVuSansMono-20" x="842.871094"/>
      <use xlink:href="#DejaVuSansMono-65" x="903.076172"/>
      <use xlink:href="#DejaVuSansMono-6e" x="963.28125"/>
      <use xlink:href="#DejaVuSansMono-65" x="1023.486328"/>
      <use xlink:href="#DejaVuSansMono-72" x="1083.691406"/>
      <use xlink:href="#DejaVuSansMono-67" x="1143.896484"/>
      <use xlink:href="#DejaVuSansMono-79" x="1204.101562"/>
      <use xlink:href="#DejaVuSansMono-2d" x="1264.306641"/>
      <use xlink:href="#DejaVuSansMono-6f" x="1324.511719"/>
      <use xlink:href="#DejaVuSansMono-70" x="1384.716797"/>
      <use xlink:href="#DejaVuSansMono-74" x="1444.921875"/>
      <use xlink:href="#DejaVuSansMono-69" x="1505.126953"/>
      <use xlink:href="#DejaVuSansMono-6d" x="1565.332031"/>
      <use xlink:href="#DejaVuSansMono-61" x="1625.537109"/>
      <use xlink:href="#DejaVuSansMono-6c" x="1685.742188"/>
      <use xlink:href="#DejaVuSansMono-20" x="1745.947266"/>
      <use xlink:href="#DejaVuSansMono-72" x="1806.152344"/>
      <use xlink:href="#DejaVuSansMono-6f" x="1866.357422"/>
      <use xlink:href="#DejaVuSansMono-75" x="1926.5625"/>
      <use xlink:href="#DejaVuSansMono-74" x="1986.767578"/>
      <use xlink:href="#DejaVuSansMono-65" x="2046.972656"/>
      <use xlink:href="#DejaVuSansMono-20" x="2107.177734"/>
      <use xlink:href="#DejaVuSansMono-28" x="2167.382812"/>
      <use xlink:href="#DejaVuSansMono-6d" x="2227.587891"/>
      <use xlink:href="#DejaVuSansMono-69" x="2287.792969"/>
      <use xlink:href="#DejaVuSansMono-6c" x="2347.998047"/>
      <use xlink:href="#DejaVuSansMono-65" x="2408.203125"/>
      <use xlink:href="#DejaVuSansMono-73" x="2468.408203"/>
      <use xlink:href="#DejaVuSansMono-29" x="2528.613281"/>
     </g>
    </g>
   </g>
   <g id="matplotlib.axis_2">
    <g id="ytick_1">
     <g id="line2d_10">
      <path d="M 39.971875 232.278054 
L 921.231875 232.278054 
" clip-path="url(#p21aebd1ec4)" style="fill: none; stroke: #b0b0b0; stroke-opacity: 0.15; stroke-width: 0.8; stroke-linecap: square"/>
     </g>
     <g id="line2d_11">
      <defs>
       <path id="m7a3657f52e" d="M 0 0 
L -3.5 0 
" style="stroke: #e2e8f0; stroke-width: 0.8"/>
      </defs>
      <g>
       <use xlink:href="#m7a3657f52e" x="39.971875" y="232.278054" style="fill: #e2e8f0; stroke: #e2e8f0; stroke-width: 0.8"/>
      </g>
     </g>
     <g id="text_11">
      <!-- 0 -->
      <g style="fill: #e2e8f0" transform="translate(26.951563 236.103835) scale(0.1 -0.1)">
       <use xlink:href="#DejaVuSansMono-30"/>
      </g>
     </g>
    </g>
    <g id="ytick_2">
     <g id="line2d_12">
      <path d="M 39.971875 199.17938 
L 921.231875 199.17938 
" clip-path="url(#p21aebd1ec4)" style="fill: none; stroke: #b0b0b0; stroke-opacity: 0.15; stroke-width: 0.8; stroke-linecap: square"/>
     </g>
     <g id="line2d_13">
      <g>
       <use xlink:href="#m7a3657f52e" x="39.971875" y="199.17938" style="fill: #e2e8f0; stroke: #e2e8f0; stroke-width: 0.8"/>
      </g>
     </g>
     <g id="text_12">
      <!-- 5 -->
      <g style="fill: #e2e8f0" transform="translate(26.951563 203.005161) scale(0.1 -0.1)">
       <use xlink:href="#DejaVuSansMono-35"/>
      </g>
     </g>
    </g>
    <g id="ytick_3">
     <g id="line2d_14">
      <path d="M 39.971875 166.080705 
L 921.231875 166.080705 
" clip-path="url(#p21aebd1ec4)" style="fill: none; stroke: #b0b0b0; stroke-opacity: 0.15; stroke-width: 0.8; stroke-linecap: square"/>
     </g>
     <g id="line2d_15">
      <g>
       <use xlink:href="#m7a3657f52e" x="39.971875" y="166.080705" style="fill: #e2e8f0; stroke: #e2e8f0; stroke-width: 0.8"/>
      </g>
     </g>
     <g id="text_13">
      <!-- 10 -->
      <g style="fill: #e2e8f0" transform="translate(20.93125 169.906487) scale(0.1 -0.1)">
       <use xlink:href="#DejaVuSansMono-31"/>
       <use xlink:href="#DejaVuSansMono-30" x="60.205078"/>
      </g>
     </g>
    </g>
    <g id="ytick_4">
     <g id="line2d_16">
      <path d="M 39.971875 132.982031 
L 921.231875 132.982031 
" clip-path="url(#p21aebd1ec4)" style="fill: none; stroke: #b0b0b0; stroke-opacity: 0.15; stroke-width: 0.8; stroke-linecap: square"/>
     </g>
     <g id="line2d_17">
      <g>
       <use xlink:href="#m7a3657f52e" x="39.971875" y="132.982031" style="fill: #e2e8f0; stroke: #e2e8f0; stroke-width: 0.8"/>
      </g>
     </g>
     <g id="text_14">
      <!-- 15 -->
      <g style="fill: #e2e8f0" transform="translate(20.93125 136.807813) scale(0.1 -0.1)">
       <use xlink:href="#DejaVuSansMono-31"/>
       <use xlink:href="#DejaVuSansMono-35" x="60.205078"/>
      </g>
     </g>
    </g>
    <g id="ytick_5">
     <g id="line2d_18">
      <path d="M 39.971875 99.883357 
L 921.231875 99.883357 
" clip-path="url(#p21aebd1ec4)" style="fill: none; stroke: #b0b0b0; stroke-opacity: 0.15; stroke-width: 0.8; stroke-linecap: square"/>
     </g>
     <g id="line2d_19">
      <g>
       <use xlink:href="#m7a3657f52e" x="39.971875" y="99.883357" style="fill: #e2e8f0; stroke: #e2e8f0; stroke-width: 0.8"/>
      </g>
     </g>
     <g id="text_15">
      <!-- 20 -->
      <g style="fill: #e2e8f0" transform="translate(20.93125 103.709138) scale(0.1 -0.1)">
       <use xlink:href="#DejaVuSansMono-32"/>
       <use xlink:href="#DejaVuSansMono-30" x="60.205078"/>
      </g>
     </g>
    </g>
    <g id="ytick_6">
     <g id="line2d_20">
      <path d="M 39.971875 66.784683 
L 921.231875 66.784683 
" clip-path="url(#p21aebd1ec4)" style="fill: none; stroke: #b0b0b0; stroke-opacity: 0.15; stroke-width: 0.8; stroke-linecap: square"/>
     </g>
     <g id="line2d_21">
      <g>
       <use xlink:href="#m7a3657f52e" x="39.971875" y="66.784683" style="fill: #e2e8f0; stroke: #e2e8f0; stroke-width: 0.8"/>
      </g>
     </g>
     <g id="text_16">
      <!-- 25 -->
      <g style="fill: #e2e8f0" transform="translate(20.93125 70.610464) scale(0.1 -0.1)">
       <use xlink:href="#DejaVuSansMono-32"/>
       <use xlink:href="#DejaVuSansMono-35" x="60.205078"/>
      </g>
     </g>
    </g>
    <g id="ytick_7">
     <g id="line2d_22">
      <path d="M 39.971875 33.686009 
L 921.231875 33.686009 
" clip-path="url(#p21aebd1ec4)" style="fill: none; stroke: #b0b0b0; stroke-opacity: 0.15; stroke-width: 0.8; stroke-linecap: square"/>
     </g>
     <g id="line2d_23">
      <g>
       <use xlink:href="#m7a3657f52e" x="39.971875" y="33.686009" style="fill: #e2e8f0; stroke: #e2e8f0; stroke-width: 0.8"/>
      </g>
     </g>
     <g id="text_17">
      <!-- 30 -->
      <g style="fill: #e2e8f0" transform="translate(20.93125 37.51179) scale(0.1 -0.1)">
       <use xlink:href="#DejaVuSansMono-33"/>
       <use xlink:href="#DejaVuSansMono-30" x="60.205078"/>
      </g>
     </g>
    </g>
    <g id="text_18">
     <!-- Distance to nearest H₂ station (miles) -->
     <g style="fill: #e2e8f0" transform="translate(14.851562 247.367969) rotate(-90) scale(0.1 -0.1)">
      <defs>
       <path id="DejaVuSansMono-48" d="M 428 4666 
L 1063 4666 
L 1063 2753 
L 2791 2753 
L 2791 4666 
L 3425 4666 
L 3425 0 
L 2791 0 
L 2791 2222 
L 1063 2222 
L 1063 0 
L 428 0 
L 428 4666 
z
" transform="scale(0.015625)"/>
       <path id="DejaVuSansMono-2082" d="M 1509 356 
L 2791 356 
L 2791 0 
L 1006 0 
L 1006 343 
L 1728 1050 
Q 2044 1353 2170 1543 
Q 2297 1734 2297 1893 
Q 2297 2084 2140 2202 
Q 1984 2321 1728 2321 
Q 1575 2321 1398 2265 
Q 1222 2209 1025 2096 
L 1025 2487 
Q 1228 2575 1417 2618 
Q 1606 2662 1791 2662 
Q 2234 2662 2503 2454 
Q 2772 2246 2772 1912 
Q 2772 1734 2656 1548 
Q 2541 1362 2169 996 
L 1509 356 
z
" transform="scale(0.015625)"/>
      </defs>
      <use xlink:href="#DejaVuSansMono-44"/>
      <use xlink:href="#DejaVuSansMono-69" x="60.205078"/>
      <use xlink:href="#DejaVuSansMono-73" x="120.410156"/>
      <use xlink:href="#DejaVuSansMono-74" x="180.615234"/>
      <use xlink:href="#DejaVuSansMono-61" x="240.820312"/>
      <use xlink:href="#DejaVuSansMono-6e" x="301.025391"/>
      <use xlink:href="#DejaVuSansMono-63" x="361.230469"/>
      <use xlink:href="#DejaVuSansMono-65" x="421.435547"/>
      <use xlink:href="#DejaVuSansMono-20" x="481.640625"/>
      <use xlink:href="#DejaVuSansMono-74" x="541.845703"/>
      <use xlink:href="#DejaVuSansMono-6f" x="602.050781"/>
      <use xlink:href="#DejaVuSansMono-20" x="662.255859"/>
      <use xlink:href="#DejaVuSansMono-6e" x="722.460938"/>
      <use xlink:href="#DejaVuSansMono-65" x="782.666016"/>
      <use xlink:href="#DejaVuSansMono-61" x="842.871094"/>
      <use xlink:href="#DejaVuSansMono-72" x="903.076172"/>
      <use xlink:href="#DejaVuSansMono-65" x="963.28125"/>
      <use xlink:href="#DejaVuSansMono-73" x="1023.486328"/>
      <use xlink:href="#DejaVuSansMono-74" x="1083.691406"/>
      <use xlink:href="#DejaVuSansMono-20" x="1143.896484"/>
      <use xlink:href="#DejaVuSansMono-48" x="1204.101562"/>
      <use xlink:href="#DejaVuSansMono-2082" x="1264.306641"/>
      <use xlink:href="#DejaVuSansMono-20" x="1324.511719"/>
      <use xlink:href="#DejaVuSansMono-73" x="1384.716797"/>
      <use xlink:href="#DejaVuSansMono-74" x="1444.921875"/>
      <use xlink:href="#DejaVuSansMono-61" x="1505.126953"/>
      <use xlink:href="#DejaVuSansMono-74" x="1565.332031"/>
      <use xlink:href="#DejaVuSansMono-69" x="1625.537109"/>
      <use xlink:href="#DejaVuSansMono-6f" x="1685.742188"/>
      <use xlink:href="#DejaVuSansMono-6e" x="1745.947266"/>
      <use xlink:href="#DejaVuSansMono-20" x="1806.152344"/>
      <use xlink:href="#DejaVuSansMono-28" x="1866.357422"/>
      <use xlink:href="#DejaVuSansMono-6d" x="1926.5625"/>
      <use xlink:href="#DejaVuSansMono-69" x="1986.767578"/>
      <use xlink:href="#DejaVuSansMono-6c" x="2046.972656"/>
      <use xlink:href="#DejaVuSansMono-65" x="2107.177734"/>
      <use xlink:href="#DejaVuSansMono-73" x="2167.382812"/>
      <use xlink:href="#DejaVuSansMono-29" x="2227.587891"/>
     </g>
    </g>
   </g>
   <g id="line2d_24">
    <path d="M 39.971875 197.118813 
L 50.1013 199.925143 
L 60.230726 202.728097 
L 70.360151 205.52659 
L 80.489576 208.319033 
L 90.619001 211.653727 
L 100.748427 215.079636 
L 110.877852 218.505666 
L 121.007277 221.931809 
L 131.136703 225.35804 
L 141.266128 228.78424 
L 151.395553 232.18943 
L 161.524978 228.917611 
L 171.654404 225.28172 
L 181.783829 221.481493 
L 191.913254 217.678124 
L 202.04268 213.873471 
L 212.172105 210.235455 
L 222.30153 206.817937 
L 232.430955 203.573552 
L 242.560381 207.000641 
L 252.689806 210.427626 
L 262.819231 213.854379 
L 272.948657 217.28065 
L 283.078082 220.705898 
L 293.207507 223.937823 
L 303.336932 226.022807 
L 313.466358 228.107841 
L 323.595783 230.192923 
L 333.725208 232.278054 
L 343.854634 229.998155 
L 353.984059 227.718232 
L 364.113484 225.438286 
L 374.242909 223.158317 
L 384.372335 220.065574 
L 394.50176 216.79327 
L 404.631185 216.546089 
L 414.760611 219.885199 
L 424.890036 222.81136 
L 435.019461 225.572474 
L 445.148886 228.333592 
L 455.278312 231.094714 
L 465.407737 230.394642 
L 475.537162 227.098613 
L 485.666588 223.802509 
L 495.796013 220.506331 
L 505.925438 217.42189 
L 516.054864 214.704525 
L 526.184289 217.522549 
L 536.313714 220.340644 
L 546.443139 223.038027 
L 556.572565 225.433518 
L 566.70199 227.829059 
L 576.831415 230.22465 
L 586.960841 231.815027 
L 597.090266 228.57379 
L 607.219691 225.332467 
L 617.349116 222.091052 
L 627.478542 218.849547 
L 637.607967 216.030772 
L 647.737392 213.211929 
L 657.866818 210.39302 
L 667.996243 207.574042 
L 678.125668 205.215761 
L 688.255093 202.920428 
L 698.384519 200.613272 
L 708.513944 198.296698 
L 718.643369 194.969773 
L 728.772795 196.928936 
L 738.90222 199.561095 
L 749.031645 201.957536 
L 759.16107 204.058114 
L 769.290496 205.792308 
L 779.419921 207.084309 
L 789.549346 207.86378 
L 799.678772 210.994584 
L 809.808197 216.409458 
L 819.937622 222.255464 
L 830.067047 228.101842 
L 840.196473 231.103523 
L 850.325898 226.992543 
L 860.455323 224.642529 
L 870.584749 228.753885 
L 880.714174 231.627877 
L 890.843599 227.076503 
L 900.973024 222.524898 
L 911.10245 217.973063 
L 921.231875 213.420997 
" clip-path="url(#p21aebd1ec4)" style="fill: none; stroke: #d4622a; stroke-width: 1.5; stroke-linecap: square"/>
   </g>
   <g id="line2d_25">
    <path d="M 39.971875 33.686009 
L 921.231875 33.686009 
" clip-path="url(#p21aebd1ec4)" style="fill: none; stroke-dasharray: 5.55,2.4; stroke-dashoffset: 0; stroke: #ef4444; stroke-width: 1.5"/>
   </g>
   <g id="line2d_26">
    <path d="M 151.395553 242.207656 
L 151.395553 23.756406 
" clip-path="url(#p21aebd1ec4)" style="fill: none; stroke-dasharray: 1,1.65; stroke-dashoffset: 0; stroke: #10b981; stroke-opacity: 0.35"/>
   </g>
   <g id="line2d_27">
    <path d="M 333.725208 242.207656 
L 333.725208 23.756406 
" clip-path="url(#p21aebd1ec4)" style="fill: none; stroke-dasharray: 1,1.65; stroke-dashoffset: 0; stroke: #10b981; stroke-opacity: 0.35"/>
   </g>
   <g id="line2d_28">
    <path d="M 455.278312 242.207656 
L 455.278312 23.756406 
" clip-path="url(#p21aebd1ec4)" style="fill: none; stroke-dasharray: 1,1.65; stroke-dashoffset: 0; stroke: #10b981; stroke-opacity: 0.35"/>
   </g>
   <g id="line2d_29">
    <path d="M 586.960841 242.207656 
L 586.960841 23.756406 
" clip-path="url(#p21aebd1ec4)" style="fill: none; stroke-dasharray: 1,1.65; stroke-dashoffset: 0; stroke: #10b981; stroke-opacity: 0.35"/>
   </g>
   <g id="line2d_30">
    <path d="M 840.196473 242.207656 
L 840.196473 23.756406 
" clip-path="url(#p21aebd1ec4)" style="fill: none; stroke-dasharray: 1,1.65; stroke-dashoffset: 0; stroke: #10b981; stroke-opacity: 0.35"/>
   </g>
   <g id="line2d_31">
    <path d="M 880.714174 242.207656 
L 880.714174 23.756406 
" clip-path="url(#p21aebd1ec4)" style="fill: none; stroke-dasharray: 1,1.65; stroke-dashoffset: 0; stroke: #10b981; stroke-opacity: 0.35"/>
   </g>
   <g id="line2d_32">
    <path d="M 840.196473 242.207656 
L 840.196473 23.756406 
" clip-path="url(#p21aebd1ec4)" style="fill: none; stroke-dasharray: 1,1.65; stroke-dashoffset: 0; stroke: #10b981; stroke-opacity: 0.35"/>
   </g>
   <g id="patch_3">
    <path d="M 39.971875 242.207656 
L 39.971875 23.756406 
" style="fill: none; stroke: #4a5568; stroke-width: 0.8; stroke-linejoin: miter; stroke-linecap: square"/>
   </g>
   <g id="patch_4">
    <path d="M 39.971875 242.207656 
L 921.231875 242.207656 
" style="fill: none; stroke: #4a5568; stroke-width: 0.8; stroke-linejoin: miter; stroke-linecap: square"/>
   </g>
   <g id="text_19">
    <!-- Along-Route H₂ Infrastructure Coverage (NREL Station Data) -->
    <g style="fill: #e2e8f0" transform="translate(253.636094 17.756406) scale(0.13 -0.13)">
     <defs>
      <path id="DejaVuSansMono-Bold-41" d="M 1925 3822 
L 1491 1913 
L 2363 1913 
L 1925 3822 
z
M 1363 4666 
L 2491 4666 
L 3750 0 
L 2828 0 
L 2541 1153 
L 1306 1153 
L 1025 0 
L 103 0 
L 1363 4666 
z
" transform="scale(0.015625)"/>
      <path id="DejaVuSansMono-Bold-6c" d="M 1209 1459 
L 1209 4159 
L 281 4159 
L 281 4863 
L 2125 4863 
L 2125 1459 
Q 2125 1047 2253 875 
Q 2381 703 2688 703 
L 3419 703 
L 3419 0 
L 2431 0 
Q 1778 0 1493 337 
Q 1209 675 1209 1459 
z
" transform="scale(0.015625)"/>
      <path id="DejaVuSansMono-Bold-6f" d="M 1925 2841 
Q 1597 2841 1409 2552 
Q 1222 2263 1222 1747 
Q 1222 1231 1409 942 
Q 1597 653 1925 653 
Q 2256 653 2443 942 
Q 2631 1231 2631 1747 
Q 2631 2263 2443 2552 
Q 2256 2841 1925 2841 
z
M 306 1747 
Q 306 2594 745 3089 
Q 1184 3584 1925 3584 
Q 2669 3584 3108 3089 
Q 3547 2594 3547 1747 
Q 3547 900 3108 404 
Q 2669 -91 1925 -91 
Q 1184 -91 745 404 
Q 306 900 306 1747 
z
" transform="scale(0.015625)"/>
      <path id="DejaVuSansMono-Bold-6e" d="M 3347 2272 
L 3347 0 
L 2438 0 
L 2438 2131 
Q 2438 2513 2330 2677 
Q 2222 2841 1978 2841 
Q 1731 2841 1589 2619 
Q 1447 2397 1447 2003 
L 1447 0 
L 538 0 
L 538 3500 
L 1447 3500 
L 1447 2975 
Q 1544 3266 1778 3425 
Q 2013 3584 2344 3584 
Q 2841 3584 3094 3254 
Q 3347 2925 3347 2272 
z
" transform="scale(0.015625)"/>
      <path id="DejaVuSansMono-Bold-67" d="M 2509 1806 
Q 2509 2275 2331 2558 
Q 2153 2841 1863 2841 
Q 1575 2841 1398 2559 
Q 1222 2278 1222 1806 
Q 1222 1331 1398 1050 
Q 1575 769 1863 769 
Q 2153 769 2331 1051 
Q 2509 1334 2509 1806 
z
M 3425 263 
Q 3425 -578 3045 -951 
Q 2666 -1325 1813 -1325 
Q 1525 -1325 1244 -1283 
Q 963 -1241 672 -1153 
L 672 -313 
Q 931 -456 1200 -525 
Q 1469 -594 1753 -594 
Q 2141 -594 2325 -411 
Q 2509 -228 2509 159 
L 2509 538 
Q 2375 288 2153 166 
Q 1931 44 1613 44 
Q 1013 44 659 512 
Q 306 981 306 1784 
Q 306 2616 659 3103 
Q 1013 3591 1606 3591 
Q 1906 3591 2140 3450 
Q 2375 3309 2509 3053 
L 2509 3500 
L 3425 3500 
L 3425 263 
z
" transform="scale(0.015625)"/>
      <path id="DejaVuSansMono-Bold-2d" d="M 941 2297 
L 2913 2297 
L 2913 1388 
L 941 1388 
L 941 2297 
z
" transform="scale(0.015625)"/>
      <path id="DejaVuSansMono-Bold-52" d="M 2522 2203 
Q 2659 2175 2761 2073 
Q 2863 1972 3009 1678 
L 3853 0 
L 2841 0 
L 2278 1178 
Q 2253 1228 2213 1316 
Q 1966 1844 1631 1844 
L 1338 1844 
L 1338 0 
L 416 0 
L 416 4666 
L 1747 4666 
Q 2647 4666 3039 4347 
Q 3431 4028 3431 3309 
Q 3431 2828 3197 2543 
Q 2963 2259 2522 2203 
z
M 1338 3891 
L 1338 2619 
L 1772 2619 
Q 2150 2619 2314 2767 
Q 2478 2916 2478 3256 
Q 2478 3597 2315 3744 
Q 2153 3891 1772 3891 
L 1338 3891 
z
" transform="scale(0.015625)"/>
      <path id="DejaVuSansMono-Bold-75" d="M 500 1222 
L 500 3500 
L 1416 3500 
L 1416 1363 
Q 1416 984 1522 821 
Q 1628 659 1875 659 
Q 2122 659 2261 878 
Q 2400 1097 2400 1491 
L 2400 3500 
L 3316 3500 
L 3316 0 
L 2400 0 
L 2400 519 
Q 2303 228 2070 68 
Q 1838 -91 1509 -91 
Q 1009 -91 754 240 
Q 500 572 500 1222 
z
" transform="scale(0.015625)"/>
      <path id="DejaVuSansMono-Bold-74" d="M 2156 4494 
L 2156 3500 
L 3353 3500 
L 3353 2797 
L 2156 2797 
L 2156 1141 
Q 2156 906 2270 804 
Q 2384 703 2650 703 
L 3353 703 
L 3353 0 
L 2584 0 
Q 1797 0 1519 251 
Q 1241 503 1241 1184 
L 1241 2797 
L 347 2797 
L 347 3500 
L 1241 3500 
L 1241 4494 
L 2156 4494 
z
" transform="scale(0.015625)"/>
      <path id="DejaVuSansMono-Bold-65" d="M 3444 172 
Q 3125 41 2794 -25 
Q 2463 -91 2094 -91 
Q 1216 -91 752 379 
Q 288 850 288 1734 
Q 288 2591 734 3087 
Q 1181 3584 1953 3584 
Q 2731 3584 3161 3123 
Q 3591 2663 3591 1825 
L 3591 1453 
L 1219 1453 
Q 1222 1041 1462 837 
Q 1703 634 2181 634 
Q 2497 634 2803 725 
Q 3109 816 3444 1013 
L 3444 172 
z
M 2669 2141 
Q 2663 2503 2483 2689 
Q 2303 2875 1953 2875 
Q 1638 2875 1450 2683 
Q 1263 2491 1228 2138 
L 2669 2141 
z
" transform="scale(0.015625)"/>
      <path id="DejaVuSansMono-Bold-20" transform="scale(0.015625)"/>
      <path id="DejaVuSansMono-Bold-48" d="M 428 4666 
L 1350 4666 
L 1350 2888 
L 2503 2888 
L 2503 4666 
L 3425 4666 
L 3425 0 
L 2503 0 
L 2503 2075 
L 1350 2075 
L 1350 0 
L 428 0 
L 428 4666 
z
" transform="scale(0.015625)"/>
      <path id="DejaVuSansMono-Bold-2082" d="M 1563 453 
L 2938 453 
L 2938 0 
L 856 0 
L 856 440 
Q 1016 575 1297 809 
Q 2278 1628 2278 1875 
Q 2278 2037 2142 2131 
Q 2006 2225 1772 2225 
Q 1597 2225 1386 2170 
Q 1175 2115 934 2009 
L 934 2521 
Q 1169 2590 1391 2626 
Q 1613 2662 1819 2662 
Q 2347 2662 2639 2466 
Q 2931 2271 2931 1925 
Q 2931 1531 1822 656 
Q 1653 525 1563 453 
z
" transform="scale(0.015625)"/>
      <path id="DejaVuSansMono-Bold-49" d="M 538 3853 
L 538 4666 
L 3316 4666 
L 3316 3853 
L 2388 3853 
L 2388 813 
L 3316 813 
L 3316 0 
L 538 0 
L 538 813 
L 1466 813 
L 1466 3853 
L 538 3853 
z
" transform="scale(0.015625)"/>
      <path id="DejaVuSansMono-Bold-66" d="M 2309 3806 
L 2309 3500 
L 3384 3500 
L 3384 2797 
L 2309 2797 
L 2309 0 
L 1394 0 
L 1394 2797 
L 544 2797 
L 544 3500 
L 1394 3500 
L 1394 3744 
Q 1394 4375 1656 4619 
Q 1919 4863 2631 4863 
L 3384 4863 
L 3384 4159 
L 2669 4159 
Q 2463 4159 2389 4084 
Q 2316 4009 2309 3806 
z
" transform="scale(0.015625)"/>
      <path id="DejaVuSansMono-Bold-72" d="M 3597 2534 
Q 3447 2672 3245 2740 
Q 3044 2809 2803 2809 
Q 2513 2809 2295 2707 
Q 2078 2606 1959 2413 
Q 1884 2294 1854 2125 
Q 1825 1956 1825 1613 
L 1825 0 
L 909 0 
L 909 3500 
L 1825 3500 
L 1825 2956 
Q 1959 3256 2237 3420 
Q 2516 3584 2888 3584 
Q 3075 3584 3254 3539 
Q 3434 3494 3597 3406 
L 3597 2534 
z
" transform="scale(0.015625)"/>
      <path id="DejaVuSansMono-Bold-61" d="M 2188 1644 
Q 1675 1644 1472 1512 
Q 1269 1381 1269 1063 
Q 1269 825 1409 684 
Q 1550 544 1791 544 
Q 2153 544 2353 817 
Q 2553 1091 2553 1581 
L 2553 1644 
L 2188 1644 
z
M 3463 1997 
L 3463 0 
L 2553 0 
L 2553 391 
Q 2388 159 2128 34 
Q 1869 -91 1556 -91 
Q 959 -91 626 225 
Q 294 541 294 1106 
Q 294 1719 691 2011 
Q 1088 2303 1919 2303 
L 2553 2303 
L 2553 2456 
Q 2553 2678 2392 2792 
Q 2231 2906 1919 2906 
Q 1591 2906 1283 2823 
Q 975 2741 641 2559 
L 641 3341 
Q 944 3466 1256 3525 
Q 1569 3584 1919 3584 
Q 2772 3584 3117 3237 
Q 3463 2891 3463 1997 
z
" transform="scale(0.015625)"/>
      <path id="DejaVuSansMono-Bold-73" d="M 3097 3391 
L 3097 2591 
Q 2844 2753 2570 2836 
Q 2297 2919 2022 2919 
Q 1716 2919 1559 2830 
Q 1403 2741 1403 2566 
Q 1403 2316 2072 2159 
L 2106 2150 
L 2369 2088 
Q 2869 1969 3101 1705 
Q 3334 1441 3334 991 
Q 3334 450 2979 179 
Q 2625 -91 1913 -91 
Q 1597 -91 1265 -36 
Q 934 19 594 128 
L 594 928 
Q 897 756 1211 665 
Q 1525 575 1819 575 
Q 2141 575 2306 669 
Q 2472 763 2472 941 
Q 2472 1116 2355 1209 
Q 2238 1303 1797 1409 
L 1544 1466 
Q 1019 1584 778 1837 
Q 538 2091 538 2516 
Q 538 3022 903 3303 
Q 1269 3584 1931 3584 
Q 2228 3584 2523 3536 
Q 2819 3488 3097 3391 
z
" transform="scale(0.015625)"/>
      <path id="DejaVuSansMono-Bold-63" d="M 3316 178 
Q 3084 44 2818 -23 
Q 2553 -91 2247 -91 
Q 1438 -91 981 396 
Q 525 884 525 1747 
Q 525 2613 984 3102 
Q 1444 3591 2253 3591 
Q 2534 3591 2795 3525 
Q 3056 3459 3316 3322 
L 3316 2484 
Q 3116 2656 2877 2748 
Q 2638 2841 2381 2841 
Q 1934 2841 1693 2556 
Q 1453 2272 1453 1747 
Q 1453 1222 1693 940 
Q 1934 659 2381 659 
Q 2647 659 2878 748 
Q 3109 838 3316 1019 
L 3316 178 
z
" transform="scale(0.015625)"/>
      <path id="DejaVuSansMono-Bold-43" d="M 3378 134 
Q 3159 22 2918 -34 
Q 2678 -91 2413 -91 
Q 1469 -91 972 531 
Q 475 1153 475 2328 
Q 475 3506 972 4128 
Q 1469 4750 2413 4750 
Q 2678 4750 2922 4694 
Q 3166 4638 3378 4525 
L 3378 3500 
Q 3141 3719 2917 3820 
Q 2694 3922 2456 3922 
Q 1950 3922 1692 3520 
Q 1434 3119 1434 2328 
Q 1434 1541 1692 1139 
Q 1950 738 2456 738 
Q 2694 738 2917 839 
Q 3141 941 3378 1159 
L 3378 134 
z
" transform="scale(0.015625)"/>
      <path id="DejaVuSansMono-Bold-76" d="M 3603 3500 
L 2491 0 
L 1363 0 
L 250 3500 
L 1178 3500 
L 1925 769 
L 2675 3500 
L 3603 3500 
z
" transform="scale(0.015625)"/>
      <path id="DejaVuSansMono-Bold-28" d="M 2888 4856 
Q 2475 4109 2275 3409 
Q 2075 2709 2075 2009 
Q 2075 1316 2275 611 
Q 2475 -94 2888 -844 
L 2175 -844 
Q 1678 -122 1437 579 
Q 1197 1281 1197 2009 
Q 1197 2734 1439 3439 
Q 1681 4144 2175 4856 
L 2888 4856 
z
" transform="scale(0.015625)"/>
      <path id="DejaVuSansMono-Bold-4e" d="M 372 4666 
L 1363 4666 
L 2663 1275 
L 2663 4666 
L 3475 4666 
L 3475 0 
L 2491 0 
L 1184 3391 
L 1184 0 
L 372 0 
L 372 4666 
z
" transform="scale(0.015625)"/>
      <path id="DejaVuSansMono-Bold-45" d="M 3431 0 
L 525 0 
L 525 4666 
L 3431 4666 
L 3431 3853 
L 1447 3853 
L 1447 2847 
L 3244 2847 
L 3244 2034 
L 1447 2034 
L 1447 813 
L 3431 813 
L 3431 0 
z
" transform="scale(0.015625)"/>
      <path id="DejaVuSansMono-Bold-4c" d="M 703 0 
L 703 4666 
L 1625 4666 
L 1625 813 
L 3597 813 
L 3597 0 
L 703 0 
z
" transform="scale(0.015625)"/>
      <path id="DejaVuSansMono-Bold-53" d="M 1594 2047 
Q 897 2313 650 2605 
Q 403 2897 403 3391 
Q 403 4025 809 4387 
Q 1216 4750 1925 4750 
Q 2247 4750 2569 4676 
Q 2891 4603 3206 4459 
L 3206 3559 
Q 2909 3769 2603 3878 
Q 2297 3988 1997 3988 
Q 1663 3988 1484 3853 
Q 1306 3719 1306 3469 
Q 1306 3275 1436 3148 
Q 1566 3022 1978 2869 
L 2375 2719 
Q 2938 2513 3203 2172 
Q 3469 1831 3469 1313 
Q 3469 606 3051 257 
Q 2634 -91 1791 -91 
Q 1444 -91 1095 -8 
Q 747 75 422 238 
L 422 1191 
Q 791 928 1136 800 
Q 1481 672 1819 672 
Q 2159 672 2346 826 
Q 2534 981 2534 1259 
Q 2534 1469 2409 1626 
Q 2284 1784 2047 1875 
L 1594 2047 
z
" transform="scale(0.015625)"/>
      <path id="DejaVuSansMono-Bold-69" d="M 691 3500 
L 2503 3500 
L 2503 703 
L 3641 703 
L 3641 0 
L 447 0 
L 447 703 
L 1588 703 
L 1588 2797 
L 691 2797 
L 691 3500 
z
M 1588 5203 
L 2503 5203 
L 2503 4134 
L 1588 4134 
L 1588 5203 
z
" transform="scale(0.015625)"/>
      <path id="DejaVuSansMono-Bold-44" d="M 1350 3834 
L 1350 831 
L 1600 831 
Q 2144 831 2375 1173 
Q 2606 1516 2606 2338 
Q 2606 3153 2375 3493 
Q 2144 3834 1600 3834 
L 1350 3834 
z
M 428 4666 
L 1416 4666 
Q 2559 4666 3062 4120 
Q 3566 3575 3566 2338 
Q 3566 1097 3062 548 
Q 2559 0 1416 0 
L 428 0 
L 428 4666 
z
" transform="scale(0.015625)"/>
      <path id="DejaVuSansMono-Bold-29" d="M 966 4856 
L 1678 4856 
Q 2172 4144 2414 3439 
Q 2656 2734 2656 2009 
Q 2656 1281 2415 579 
Q 2175 -122 1678 -844 
L 966 -844 
Q 1378 -94 1578 611 
Q 1778 1316 1778 2009 
Q 1778 2709 1578 3409 
Q 1378 4109 966 4856 
z
" transform="scale(0.015625)"/>
     </defs>
     <use xlink:href="#DejaVuSansMono-Bold-41"/>
     <use xlink:href="#DejaVuSansMono-Bold-6c" x="60.205078"/>
     <use xlink:href="#DejaVuSansMono-Bold-6f" x="120.410156"/>
     <use xlink:href="#DejaVuSansMono-Bold-6e" x="180.615234"/>
     <use xlink:href="#DejaVuSansMono-Bold-67" x="240.820312"/>
     <use xlink:href="#DejaVuSansMono-Bold-2d" x="301.025391"/>
     <use xlink:href="#DejaVuSansMono-Bold-52" x="361.230469"/>
     <use xlink:href="#DejaVuSansMono-Bold-6f" x="421.435547"/>
     <use xlink:href="#DejaVuSansMono-Bold-75" x="481.640625"/>
     <use xlink:href="#DejaVuSansMono-Bold-74" x="541.845703"/>
     <use xlink:href="#DejaVuSansMono-Bold-65" x="602.050781"/>
     <use xlink:href="#DejaVuSansMono-Bold-20" x="662.255859"/>
     <use xlink:href="#DejaVuSansMono-Bold-48" x="722.460938"/>
     <use xlink:href="#DejaVuSansMono-Bold-2082" x="782.666016"/>
     <use xlink:href="#DejaVuSansMono-Bold-20" x="842.871094"/>
     <use xlink:href="#DejaVuSansMono-Bold-49" x="903.076172"/>
     <use xlink:href="#DejaVuSansMono-Bold-6e" x="963.28125"/>
     <use xlink:href="#DejaVuSansMono-Bold-66" x="1023.486328"/>
     <use xlink:href="#DejaVuSansMono-Bold-72" x="1083.691406"/>
     <use xlink:href="#DejaVuSansMono-Bold-61" x="1143.896484"/>
     <use xlink:href="#DejaVuSansMono-Bold-73" x="1204.101562"/>
     <use xlink:href="#DejaVuSansMono-Bold-74" x="1264.306641"/>
     <use xlink:href="#DejaVuSansMono-Bold-72" x="1324.511719"/>
     <use xlink:href="#DejaVuSansMono-Bold-75" x="1384.716797"/>
     <use xlink:href="#DejaVuSansMono-Bold-63" x="1444.921875"/>
     <use xlink:href="#DejaVuSansMono-Bold-74" x="1505.126953"/>
     <use xlink:href="#DejaVuSansMono-Bold-75" x="1565.332031"/>
     <use xlink:href="#DejaVuSansMono-Bold-72" x="1625.537109"/>
     <use xlink:href="#DejaVuSansMono-Bold-65" x="1685.742188"/>
     <use xlink:href="#DejaVuSansMono-Bold-20" x="1745.947266"/>
     <use xlink:href="#DejaVuSansMono-Bold-43" x="1806.152344"/>
     <use xlink:href="#DejaVuSansMono-Bold-6f" x="1866.357422"/>
     <use xlink:href="#DejaVuSansMono-Bold-76" x="1926.5625"/>
     <use xlink:href="#DejaVuSansMono-Bold-65" x="1986.767578"/>
     <use xlink:href="#DejaVuSansMono-Bold-72" x="2046.972656"/>
     <use xlink:href="#DejaVuSansMono-Bold-61" x="2107.177734"/>
     <use xlink:href="#DejaVuSansMono-Bold-67" x="2167.382812"/>
     <use xlink:href="#DejaVuSansMono-Bold-65" x="2227.587891"/>
     <use xlink:href="#DejaVuSansMono-Bold-20" x="2287.792969"/>
     <use xlink:href="#DejaVuSansMono-Bold-28" x="2347.998047"/>
     <use xlink:href="#DejaVuSansMono-Bold-4e" x="2408.203125"/>
     <use xlink:href="#DejaVuSansMono-Bold-52" x="2468.408203"/>
     <use xlink:href="#DejaVuSansMono-Bold-45" x="2528.613281"/>
     <use xlink:href="#DejaVuSansMono-Bold-4c" x="2588.818359"/>
     <use xlink:href="#DejaVuSansMono-Bold-20" x="2649.023438"/>
     <use xlink:href="#DejaVuSansMono-Bold-53" x="2709.228516"/>
     <use xlink:href="#DejaVuSansMono-Bold-74" x="2769.433594"/>
     <use xlink:href="#DejaVuSansMono-Bold-61" x="2829.638672"/>
     <use xlink:href="#DejaVuSansMono-Bold-74" x="2889.84375"/>
     <use xlink:href="#DejaVuSansMono-Bold-69" x="2950.048828"/>
     <use xlink:href="#DejaVuSansMono-Bold-6f" x="3010.253906"/>
     <use xlink:href="#DejaVuSansMono-Bold-6e" x="3070.458984"/>
     <use xlink:href="#DejaVuSansMono-Bold-20" x="3130.664062"/>
     <use xlink:href="#DejaVuSansMono-Bold-44" x="3190.869141"/>
     <use xlink:href="#DejaVuSansMono-Bold-61" x="3251.074219"/>
     <use xlink:href="#DejaVuSansMono-Bold-74" x="3311.279297"/>
     <use xlink:href="#DejaVuSansMono-Bold-61" x="3371.484375"/>
     <use xlink:href="#DejaVuSansMono-Bold-29" x="3431.689453"/>
    </g>
   </g>
   <g id="legend_1">
    <g id="patch_5">
     <path d="M 46.271875 154.281094 
L 259.293437 154.281094 
Q 261.093437 154.281094 261.093437 152.481094 
L 261.093437 113.482969 
Q 261.093437 111.682969 259.293437 111.682969 
L 46.271875 111.682969 
Q 44.471875 111.682969 44.471875 113.482969 
L 44.471875 152.481094 
Q 44.471875 154.281094 46.271875 154.281094 
z
" style="fill: #080d1a; opacity: 0.8; stroke: #4a5568; stroke-linejoin: miter"/>
    </g>
    <g id="line2d_33">
     <path d="M 48.071875 119.019375 
L 57.071875 119.019375 
L 66.071875 119.019375 
" style="fill: none; stroke: #d4622a; stroke-width: 1.5; stroke-linecap: square"/>
    </g>
    <g id="text_20">
     <!-- Dist to nearest H₂ station -->
     <g style="fill: #e2e8f0" transform="translate(73.271875 122.169375) scale(0.09 -0.09)">
      <use xlink:href="#DejaVuSansMono-44"/>
      <use xlink:href="#DejaVuSansMono-69" x="60.205078"/>
      <use xlink:href="#DejaVuSansMono-73" x="120.410156"/>
      <use xlink:href="#DejaVuSansMono-74" x="180.615234"/>
      <use xlink:href="#DejaVuSansMono-20" x="240.820312"/>
      <use xlink:href="#DejaVuSansMono-74" x="301.025391"/>
      <use xlink:href="#DejaVuSansMono-6f" x="361.230469"/>
      <use xlink:href="#DejaVuSansMono-20" x="421.435547"/>
      <use xlink:href="#DejaVuSansMono-6e" x="481.640625"/>
      <use xlink:href="#DejaVuSansMono-65" x="541.845703"/>
      <use xlink:href="#DejaVuSansMono-61" x="602.050781"/>
      <use xlink:href="#DejaVuSansMono-72" x="662.255859"/>
      <use xlink:href="#DejaVuSansMono-65" x="722.460938"/>
      <use xlink:href="#DejaVuSansMono-73" x="782.666016"/>
      <use xlink:href="#DejaVuSansMono-74" x="842.871094"/>
      <use xlink:href="#DejaVuSansMono-20" x="903.076172"/>
      <use xlink:href="#DejaVuSansMono-48" x="963.28125"/>
      <use xlink:href="#DejaVuSansMono-2082" x="1023.486328"/>
      <use xlink:href="#DejaVuSansMono-20" x="1083.691406"/>
      <use xlink:href="#DejaVuSansMono-73" x="1143.896484"/>
      <use xlink:href="#DejaVuSansMono-74" x="1204.101562"/>
      <use xlink:href="#DejaVuSansMono-61" x="1264.306641"/>
      <use xlink:href="#DejaVuSansMono-74" x="1324.511719"/>
      <use xlink:href="#DejaVuSansMono-69" x="1384.716797"/>
      <use xlink:href="#DejaVuSansMono-6f" x="1444.921875"/>
      <use xlink:href="#DejaVuSansMono-6e" x="1505.126953"/>
     </g>
    </g>
    <g id="line2d_34">
     <path d="M 48.071875 132.2775 
L 57.071875 132.2775 
L 66.071875 132.2775 
" style="fill: none; stroke-dasharray: 5.55,2.4; stroke-dashoffset: 0; stroke: #ef4444; stroke-width: 1.5"/>
    </g>
    <g id="text_21">
     <!-- Safe range (30.0 mi, conservative) -->
     <g style="fill: #e2e8f0" transform="translate(73.271875 135.4275) scale(0.09 -0.09)">
      <defs>
       <path id="DejaVuSansMono-53" d="M 3163 4506 
L 3163 3866 
Q 2875 4050 2586 4144 
Q 2297 4238 2003 4238 
Q 1556 4238 1297 4030 
Q 1038 3822 1038 3469 
Q 1038 3159 1208 2996 
Q 1378 2834 1844 2725 
L 2175 2650 
Q 2831 2497 3131 2169 
Q 3431 1841 3431 1275 
Q 3431 609 3018 259 
Q 2606 -91 1819 -91 
Q 1491 -91 1159 -20 
Q 828 50 494 191 
L 494 863 
Q 853 634 1173 528 
Q 1494 422 1819 422 
Q 2297 422 2562 636 
Q 2828 850 2828 1234 
Q 2828 1584 2645 1768 
Q 2463 1953 2009 2053 
L 1672 2131 
Q 1022 2278 728 2575 
Q 434 2872 434 3372 
Q 434 3997 854 4373 
Q 1275 4750 1972 4750 
Q 2241 4750 2537 4689 
Q 2834 4628 3163 4506 
z
" transform="scale(0.015625)"/>
       <path id="DejaVuSansMono-66" d="M 3322 4863 
L 3322 4384 
L 2669 4384 
Q 2359 4384 2239 4257 
Q 2119 4131 2119 3809 
L 2119 3500 
L 3322 3500 
L 3322 3053 
L 2119 3053 
L 2119 0 
L 1544 0 
L 1544 3053 
L 609 3053 
L 609 3500 
L 1544 3500 
L 1544 3744 
Q 1544 4319 1808 4591 
Q 2072 4863 2631 4863 
L 3322 4863 
z
" transform="scale(0.015625)"/>
       <path id="DejaVuSansMono-2e" d="M 1528 953 
L 2316 953 
L 2316 0 
L 1528 0 
L 1528 953 
z
" transform="scale(0.015625)"/>
       <path id="DejaVuSansMono-2c" d="M 1569 947 
L 2356 947 
L 2356 300 
L 1741 -897 
L 1259 -897 
L 1569 300 
L 1569 947 
z
" transform="scale(0.015625)"/>
       <path id="DejaVuSansMono-76" d="M 313 3500 
L 909 3500 
L 1925 563 
L 2944 3500 
L 3541 3500 
L 2297 0 
L 1556 0 
L 313 3500 
z
" transform="scale(0.015625)"/>
      </defs>
      <use xlink:href="#DejaVuSansMono-53"/>
      <use xlink:href="#DejaVuSansMono-61" x="60.205078"/>
      <use xlink:href="#DejaVuSansMono-66" x="120.410156"/>
      <use xlink:href="#DejaVuSansMono-65" x="180.615234"/>
      <use xlink:href="#DejaVuSansMono-20" x="240.820312"/>
      <use xlink:href="#DejaVuSansMono-72" x="301.025391"/>
      <use xlink:href="#DejaVuSansMono-61" x="361.230469"/>
      <use xlink:href="#DejaVuSansMono-6e" x="421.435547"/>
      <use xlink:href="#DejaVuSansMono-67" x="481.640625"/>
      <use xlink:href="#DejaVuSansMono-65" x="541.845703"/>
      <use xlink:href="#DejaVuSansMono-20" x="602.050781"/>
      <use xlink:href="#DejaVuSansMono-28" x="662.255859"/>
      <use xlink:href="#DejaVuSansMono-33" x="722.460938"/>
      <use xlink:href="#DejaVuSansMono-30" x="782.666016"/>
      <use xlink:href="#DejaVuSansMono-2e" x="842.871094"/>
      <use xlink:href="#DejaVuSansMono-30" x="903.076172"/>
      <use xlink:href="#DejaVuSansMono-20" x="963.28125"/>
      <use xlink:href="#DejaVuSansMono-6d" x="1023.486328"/>
      <use xlink:href="#DejaVuSansMono-69" x="1083.691406"/>
      <use xlink:href="#DejaVuSansMono-2c" x="1143.896484"/>
      <use xlink:href="#DejaVuSansMono-20" x="1204.101562"/>
      <use xlink:href="#DejaVuSansMono-63" x="1264.306641"/>
      <use xlink:href="#DejaVuSansMono-6f" x="1324.511719"/>
      <use xlink:href="#DejaVuSansMono-6e" x="1384.716797"/>
      <use xlink:href="#DejaVuSansMono-73" x="1444.921875"/>
      <use xlink:href="#DejaVuSansMono-65" x="1505.126953"/>
      <use xlink:href="#DejaVuSansMono-72" x="1565.332031"/>
      <use xlink:href="#DejaVuSansMono-76" x="1625.537109"/>
      <use xlink:href="#DejaVuSansMono-61" x="1685.742188"/>
      <use xlink:href="#DejaVuSansMono-74" x="1745.947266"/>
      <use xlink:href="#DejaVuSansMono-69" x="1806.152344"/>
      <use xlink:href="#DejaVuSansMono-76" x="1866.357422"/>
      <use xlink:href="#DejaVuSansMono-65" x="1926.5625"/>
      <use xlink:href="#DejaVuSansMono-29" x="1986.767578"/>
     </g>
    </g>
    <g id="patch_6">
     <path d="M 48.071875 148.7475 
L 66.071875 148.7475 
L 66.071875 142.4475 
L 48.071875 142.4475 
z
" style="fill: #ef4444; fill-opacity: 0.2; stroke: #ef4444; stroke-opacity: 0.2; stroke-linejoin: miter"/>
    </g>
    <g id="text_22">
     <!-- Coverage gap -->
     <g style="fill: #e2e8f0" transform="translate(73.271875 148.7475) scale(0.09 -0.09)">
      <defs>
       <path id="DejaVuSansMono-43" d="M 3353 166 
Q 3113 38 2859 -26 
Q 2606 -91 2322 -91 
Q 1425 -91 929 543 
Q 434 1178 434 2328 
Q 434 3472 932 4111 
Q 1431 4750 2322 4750 
Q 2606 4750 2859 4686 
Q 3113 4622 3353 4494 
L 3353 3847 
Q 3122 4038 2856 4138 
Q 2591 4238 2322 4238 
Q 1706 4238 1400 3763 
Q 1094 3288 1094 2328 
Q 1094 1372 1400 897 
Q 1706 422 2322 422 
Q 2597 422 2861 522 
Q 3125 622 3353 813 
L 3353 166 
z
" transform="scale(0.015625)"/>
      </defs>
      <use xlink:href="#DejaVuSansMono-43"/>
      <use xlink:href="#DejaVuSansMono-6f" x="60.205078"/>
      <use xlink:href="#DejaVuSansMono-76" x="120.410156"/>
      <use xlink:href="#DejaVuSansMono-65" x="180.615234"/>
      <use xlink:href="#DejaVuSansMono-72" x="240.820312"/>
      <use xlink:href="#DejaVuSansMono-61" x="301.025391"/>
      <use xlink:href="#DejaVuSansMono-67" x="361.230469"/>
      <use xlink:href="#DejaVuSansMono-65" x="421.435547"/>
      <use xlink:href="#DejaVuSansMono-20" x="481.640625"/>
      <use xlink:href="#DejaVuSansMono-67" x="541.845703"/>
      <use xlink:href="#DejaVuSansMono-61" x="602.050781"/>
      <use xlink:href="#DejaVuSansMono-70" x="662.255859"/>
     </g>
    </g>
   </g>
  </g>
 </g>
 <defs>
  <clipPath id="p21aebd1ec4">
   <rect x="39.971875" y="23.756406" width="881.26" height="218.45125"/>
  </clipPath>
 </defs>
</svg>
