<?xml version="1.0" encoding="utf-8" standalone="no"?>
<!DOCTYPE svg PUBLIC "-//W3C//DTD SVG 1.1//EN"
  "http://www.w3.org/Graphics/SVG/1.1/DTD/svg11.dtd">
<svg xmlns:xlink="http://www.w3.org/1999/xlink" width="928.148125pt" height="320.77125pt" viewBox="0 0 928.148125 320.77125" xmlns="http://www.w3.org/2000/svg" version="1.1">
 <metadata>
  <rdf:RDF xmlns:dc="http://purl.org/dc/elements/1.1/" xmlns:cc="http://creativecommons.org/ns#" xmlns:rdf="http://www.w3.org/1999/02/22-rdf-syntax-ns#">
   <cc:Work>
    <dc:type rdf:resource="http://purl.org/dc/dcmitype/StillImage"/>
    <dc:date>2026-07-10T17:17:15.927093</dc:date>
    <dc:format>image/svg+xml</dc:format>
    <dc:creator>
     <cc:Agent>
      <dc:title>Matplotlib v3.9.2, https://matplotlib.org/</dc:title>
     </cc:Agent>
    </dc:creator>
   </cc:Work>
  </rdf:RDF>
 </metadata>
 <defs>
  <style type="text/css">*{stroke-linejoin: round; stroke-linecap: butt}</style>
 </defs>
 <g id="figure_1">
  <g id="patch_1">
   <path d="M -0 320.77125 
L 928.148125 320.77125 
L 928.148125 0 
L -0 0 
z
" style="fill: #1b1e1c"/>
  </g>
  <g id="axes_1">
   <g id="patch_2">
    <path d="M 34.020313 296.84 
L 882.140312 296.84 
L 882.140312 39.617684 
L 34.020313 39.617684 
z
" style="fill: #1b1e1c"/>
   </g>
   <g id="matplotlib.axis_1">
    <g id="xtick_1">
     <g id="line2d_1">
      <defs>
       <path id="m156b4d706b" d="M 0 0 
L 0 3.5 
" style="stroke: #edeae2; stroke-width: 0.8"/>
      </defs>
      <g>
       <use xlink:href="#m156b4d706b" x="116.605029" y="296.84" style="fill: #edeae2; stroke: #edeae2; stroke-width: 0.8"/>
      </g>
     </g>
     <g id="text_1">
      <!-- 1996 -->
      <g style="fill: #edeae2" transform="translate(104.564404 311.491562) scale(0.1 -0.1)">
       <defs>
        <path id="DejaVuSansMono-31" d="M 844 531 
L 1825 531 
L 1825 4097 
L 769 3859 
L 769 4434 
L 1819 4666 
L 2450 4666 
L 2450 531 
L 3419 531 
L 3419 0 
L 844 0 
L 844 531 
z
" transform="scale(0.015625)"/>
        <path id="DejaVuSansMono-39" d="M 1863 2069 
Q 2266 2069 2495 2359 
Q 2725 2650 2725 3163 
Q 2725 3675 2495 3965 
Q 2266 4256 1863 4256 
Q 1444 4256 1231 3979 
Q 1019 3703 1019 3163 
Q 1019 2619 1230 2344 
Q 1441 2069 1863 2069 
z
M 738 97 
L 738 678 
Q 934 563 1156 502 
Q 1378 441 1619 441 
Q 2219 441 2526 892 
Q 2834 1344 2834 2222 
Q 2688 1909 2422 1742 
Q 2156 1575 1813 1575 
Q 1138 1575 767 1990 
Q 397 2406 397 3169 
Q 397 3922 776 4336 
Q 1156 4750 1850 4750 
Q 2663 4750 3041 4165 
Q 3419 3581 3419 2328 
Q 3419 1150 2964 529 
Q 2509 -91 1644 -91 
Q 1416 -91 1184 -42 
Q 953 6 738 97 
z
" transform="scale(0.015625)"/>
        <path id="DejaVuSansMono-36" d="M 3097 4563 
L 3097 3981 
Q 2900 4097 2678 4158 
Q 2456 4219 2216 4219 
Q 1616 4219 1306 3767 
Q 997 3316 997 2438 
Q 1147 2750 1412 2917 
Q 1678 3084 2022 3084 
Q 2697 3084 3067 2670 
Q 3438 2256 3438 1497 
Q 3438 741 3056 325 
Q 2675 -91 1984 -91 
Q 1172 -91 794 492 
Q 416 1075 416 2328 
Q 416 3509 870 4129 
Q 1325 4750 2188 4750 
Q 2419 4750 2650 4701 
Q 2881 4653 3097 4563 
z
M 1972 2591 
Q 1569 2591 1337 2300 
Q 1106 2009 1106 1497 
Q 1106 984 1337 693 
Q 1569 403 1972 403 
Q 2391 403 2603 679 
Q 2816 956 2816 1497 
Q 2816 2041 2603 2316 
Q 2391 2591 1972 2591 
z
" transform="scale(0.015625)"/>
       </defs>
       <use xlink:href="#DejaVuSansMono-31"/>
       <use xlink:href="#DejaVuSansMono-39" x="60.205078"/>
       <use xlink:href="#DejaVuSansMono-39" x="120.410156"/>
       <use xlink:href="#DejaVuSansMono-36" x="180.615234"/>
      </g>
     </g>
    </g>
    <g id="xtick_2">
     <g id="line2d_2">
      <g>
       <use xlink:href="#m156b4d706b" x="212.481917" y="296.84" style="fill: #edeae2; stroke: #edeae2; stroke-width: 0.8"/>
      </g>
     </g>
     <g id="text_2">
      <!-- 2000 -->
      <g style="fill: #edeae2" transform="translate(200.441292 311.491562) scale(0.1 -0.1)">
       <defs>
        <path id="DejaVuSansMono-32" d="M 1166 531 
L 3309 531 
L 3309 0 
L 475 0 
L 475 531 
Q 1059 1147 1496 1619 
Q 1934 2091 2100 2284 
Q 2413 2666 2522 2902 
Q 2631 3138 2631 3384 
Q 2631 3775 2401 3997 
Q 2172 4219 1772 4219 
Q 1488 4219 1175 4116 
Q 863 4013 513 3803 
L 513 4441 
Q 834 4594 1145 4672 
Q 1456 4750 1759 4750 
Q 2444 4750 2861 4386 
Q 3278 4022 3278 3431 
Q 3278 3131 3139 2831 
Q 3000 2531 2688 2169 
Q 2513 1966 2180 1606 
Q 1847 1247 1166 531 
z
" transform="scale(0.015625)"/>
        <path id="DejaVuSansMono-30" d="M 1509 2344 
Q 1509 2516 1629 2641 
Q 1750 2766 1919 2766 
Q 2094 2766 2219 2641 
Q 2344 2516 2344 2344 
Q 2344 2169 2220 2047 
Q 2097 1925 1919 1925 
Q 1744 1925 1626 2044 
Q 1509 2163 1509 2344 
z
M 1925 4250 
Q 1484 4250 1267 3775 
Q 1050 3300 1050 2328 
Q 1050 1359 1267 884 
Q 1484 409 1925 409 
Q 2369 409 2586 884 
Q 2803 1359 2803 2328 
Q 2803 3300 2586 3775 
Q 2369 4250 1925 4250 
z
M 1925 4750 
Q 2672 4750 3055 4137 
Q 3438 3525 3438 2328 
Q 3438 1134 3055 521 
Q 2672 -91 1925 -91 
Q 1178 -91 797 521 
Q 416 1134 416 2328 
Q 416 3525 797 4137 
Q 1178 4750 1925 4750 
z
" transform="scale(0.015625)"/>
       </defs>
       <use xlink:href="#DejaVuSansMono-32"/>
       <use xlink:href="#DejaVuSansMono-30" x="60.205078"/>
       <use xlink:href="#DejaVuSansMono-30" x="120.410156"/>
       <use xlink:href="#DejaVuSansMono-30" x="180.615234"/>
      </g>
     </g>
    </g>
    <g id="xtick_3">
     <g id="line2d_3">
      <g>
       <use xlink:href="#m156b4d706b" x="308.358806" y="296.84" style="fill: #edeae2; stroke: #edeae2; stroke-width: 0.8"/>
      </g>
     </g>
     <g id="text_3">
      <!-- 2004 -->
      <g style="fill: #edeae2" transform="translate(296.318181 311.491562) scale(0.1 -0.1)">
       <defs>
        <path id="DejaVuSansMono-34" d="M 2297 4091 
L 825 1625 
L 2297 1625 
L 2297 4091 
z
M 2194 4666 
L 2925 4666 
L 2925 1625 
L 3547 1625 
L 3547 1113 
L 2925 1113 
L 2925 0 
L 2297 0 
L 2297 1113 
L 319 1113 
L 319 1709 
L 2194 4666 
z
" transform="scale(0.015625)"/>
       </defs>
       <use xlink:href="#DejaVuSansMono-32"/>
       <use xlink:href="#DejaVuSansMono-30" x="60.205078"/>
       <use xlink:href="#DejaVuSansMono-30" x="120.410156"/>
       <use xlink:href="#DejaVuSansMono-34" x="180.615234"/>
      </g>
     </g>
    </g>
    <g id="xtick_4">
     <g id="line2d_4">
      <g>
       <use xlink:href="#m156b4d706b" x="404.235694" y="296.84" style="fill: #edeae2; stroke: #edeae2; stroke-width: 0.8"/>
      </g>
     </g>
     <g id="text_4">
      <!-- 2008 -->
      <g style="fill: #edeae2" transform="translate(392.195069 311.491562) scale(0.1 -0.1)">
       <defs>
        <path id="DejaVuSansMono-38" d="M 1925 2216 
Q 1503 2216 1273 1980 
Q 1044 1744 1044 1313 
Q 1044 881 1276 642 
Q 1509 403 1925 403 
Q 2350 403 2579 639 
Q 2809 875 2809 1313 
Q 2809 1741 2576 1978 
Q 2344 2216 1925 2216 
z
M 1375 2478 
Q 972 2581 745 2862 
Q 519 3144 519 3541 
Q 519 4097 897 4423 
Q 1275 4750 1925 4750 
Q 2578 4750 2956 4423 
Q 3334 4097 3334 3541 
Q 3334 3144 3107 2862 
Q 2881 2581 2478 2478 
Q 2947 2375 3195 2062 
Q 3444 1750 3444 1253 
Q 3444 622 3041 265 
Q 2638 -91 1925 -91 
Q 1213 -91 811 264 
Q 409 619 409 1247 
Q 409 1747 657 2061 
Q 906 2375 1375 2478 
z
M 1147 3481 
Q 1147 3106 1347 2909 
Q 1547 2713 1925 2713 
Q 2306 2713 2506 2909 
Q 2706 3106 2706 3481 
Q 2706 3863 2507 4063 
Q 2309 4263 1925 4263 
Q 1547 4263 1347 4061 
Q 1147 3859 1147 3481 
z
" transform="scale(0.015625)"/>
       </defs>
       <use xlink:href="#DejaVuSansMono-32"/>
       <use xlink:href="#DejaVuSansMono-30" x="60.205078"/>
       <use xlink:href="#DejaVuSansMono-30" x="120.410156"/>
       <use xlink:href="#DejaVuSansMono-38" x="180.615234"/>
      </g>
     </g>
    </g>
    <g id="xtick_5">
     <g id="line2d_5">
      <g>
       <use xlink:href="#m156b4d706b" x="500.112583" y="296.84" style="fill: #edeae2; stroke: #edeae2; stroke-width: 0.8"/>
      </g>
     </g>
     <g id="text_5">
      <!-- 2012 -->
      <g style="fill: #edeae2" transform="translate(488.071958 311.491562) scale(0.1 -0.1)">
       <use xlink:href="#DejaVuSansMono-32"/>
       <use xlink:href="#DejaVuSansMono-30" x="60.205078"/>
       <use xlink:href="#DejaVuSansMono-31" x="120.410156"/>
       <use xlink:href="#DejaVuSansMono-32" x="180.615234"/>
      </g>
     </g>
    </g>
    <g id="xtick_6">
     <g id="line2d_6">
      <g>
       <use xlink:href="#m156b4d706b" x="595.989471" y="296.84" style="fill: #edeae2; stroke: #edeae2; stroke-width: 0.8"/>
      </g>
     </g>
     <g id="text_6">
      <!-- 2016 -->
      <g style="fill: #edeae2" transform="translate(583.948846 311.491562) scale(0.1 -0.1)">
       <use xlink:href="#DejaVuSansMono-32"/>
       <use xlink:href="#DejaVuSansMono-30" x="60.205078"/>
       <use xlink:href="#DejaVuSansMono-31" x="120.410156"/>
       <use xlink:href="#DejaVuSansMono-36" x="180.615234"/>
      </g>
     </g>
    </g>
    <g id="xtick_7">
     <g id="line2d_7">
      <g>
       <use xlink:href="#m156b4d706b" x="691.86636" y="296.84" style="fill: #edeae2; stroke: #edeae2; stroke-width: 0.8"/>
      </g>
     </g>
     <g id="text_7">
      <!-- 2020 -->
      <g style="fill: #edeae2" transform="translate(679.825735 311.491562) scale(0.1 -0.1)">
       <use xlink:href="#DejaVuSansMono-32"/>
       <use xlink:href="#DejaVuSansMono-30" x="60.205078"/>
       <use xlink:href="#DejaVuSansMono-32" x="120.410156"/>
       <use xlink:href="#DejaVuSansMono-30" x="180.615234"/>
      </g>
     </g>
    </g>
    <g id="xtick_8">
     <g id="line2d_8">
      <g>
       <use xlink:href="#m156b4d706b" x="787.743249" y="296.84" style="fill: #edeae2; stroke: #edeae2; stroke-width: 0.8"/>
      </g>
     </g>
     <g id="text_8">
      <!-- 2024 -->
      <g style="fill: #edeae2" transform="translate(775.702624 311.491562) scale(0.1 -0.1)">
       <use xlink:href="#DejaVuSansMono-32"/>
       <use xlink:href="#DejaVuSansMono-30" x="60.205078"/>
       <use xlink:href="#DejaVuSansMono-32" x="120.410156"/>
       <use xlink:href="#DejaVuSansMono-34" x="180.615234"/>
      </g>
     </g>
    </g>
   </g>
   <g id="matplotlib.axis_2">
    <g id="ytick_1">
     <g id="line2d_9">
      <defs>
       <path id="m195f7d1be8" d="M 0 0 
L -3.5 0 
" style="stroke: #edeae2; stroke-width: 0.8"/>
      </defs>
      <g>
       <use xlink:href="#m195f7d1be8" x="34.020313" y="286.710838" style="fill: #edeae2; stroke: #edeae2; stroke-width: 0.8"/>
      </g>
     </g>
     <g id="text_9">
      <!-- 1 -->
      <g style="fill: #edeae2" transform="translate(21 290.536619) scale(0.1 -0.1)">
       <use xlink:href="#DejaVuSansMono-31"/>
      </g>
     </g>
    </g>
    <g id="ytick_2">
     <g id="line2d_10">
      <g>
       <use xlink:href="#m195f7d1be8" x="34.020313" y="245.585536" style="fill: #edeae2; stroke: #edeae2; stroke-width: 0.8"/>
      </g>
     </g>
     <g id="text_10">
      <!-- 2 -->
      <g style="fill: #edeae2" transform="translate(21 249.411317) scale(0.1 -0.1)">
       <use xlink:href="#DejaVuSansMono-32"/>
      </g>
     </g>
    </g>
    <g id="ytick_3">
     <g id="line2d_11">
      <g>
       <use xlink:href="#m195f7d1be8" x="34.020313" y="204.460233" style="fill: #edeae2; stroke: #edeae2; stroke-width: 0.8"/>
      </g>
     </g>
     <g id="text_11">
      <!-- 3 -->
      <g style="fill: #edeae2" transform="translate(21 208.286015) scale(0.1 -0.1)">
       <defs>
        <path id="DejaVuSansMono-33" d="M 2425 2497 
Q 2884 2375 3128 2064 
Q 3372 1753 3372 1288 
Q 3372 644 2939 276 
Q 2506 -91 1741 -91 
Q 1419 -91 1084 -31 
Q 750 28 428 141 
L 428 769 
Q 747 603 1056 522 
Q 1366 441 1672 441 
Q 2191 441 2469 675 
Q 2747 909 2747 1350 
Q 2747 1756 2469 1995 
Q 2191 2234 1716 2234 
L 1234 2234 
L 1234 2753 
L 1716 2753 
Q 2150 2753 2394 2943 
Q 2638 3134 2638 3475 
Q 2638 3834 2411 4026 
Q 2184 4219 1766 4219 
Q 1488 4219 1191 4156 
Q 894 4094 569 3969 
L 569 4550 
Q 947 4650 1242 4700 
Q 1538 4750 1766 4750 
Q 2447 4750 2855 4408 
Q 3263 4066 3263 3500 
Q 3263 3116 3048 2859 
Q 2834 2603 2425 2497 
z
" transform="scale(0.015625)"/>
       </defs>
       <use xlink:href="#DejaVuSansMono-33"/>
      </g>
     </g>
    </g>
    <g id="ytick_4">
     <g id="line2d_12">
      <g>
       <use xlink:href="#m195f7d1be8" x="34.020313" y="163.334931" style="fill: #edeae2; stroke: #edeae2; stroke-width: 0.8"/>
      </g>
     </g>
     <g id="text_12">
      <!-- 4 -->
      <g style="fill: #edeae2" transform="translate(21 167.160712) scale(0.1 -0.1)">
       <use xlink:href="#DejaVuSansMono-34"/>
      </g>
     </g>
    </g>
    <g id="ytick_5">
     <g id="line2d_13">
      <g>
       <use xlink:href="#m195f7d1be8" x="34.020313" y="122.209629" style="fill: #edeae2; stroke: #edeae2; stroke-width: 0.8"/>
      </g>
     </g>
     <g id="text_13">
      <!-- 5 -->
      <g style="fill: #edeae2" transform="translate(21 126.03541) scale(0.1 -0.1)">
       <defs>
        <path id="DejaVuSansMono-35" d="M 647 4666 
L 3009 4666 
L 3009 4134 
L 1222 4134 
L 1222 2988 
Q 1356 3038 1492 3061 
Q 1628 3084 1766 3084 
Q 2491 3084 2916 2656 
Q 3341 2228 3341 1497 
Q 3341 759 2895 334 
Q 2450 -91 1678 -91 
Q 1306 -91 998 -41 
Q 691 9 447 109 
L 447 750 
Q 734 594 1025 517 
Q 1316 441 1619 441 
Q 2141 441 2423 716 
Q 2706 991 2706 1497 
Q 2706 1997 2414 2275 
Q 2122 2553 1600 2553 
Q 1347 2553 1106 2495 
Q 866 2438 647 2322 
L 647 4666 
z
" transform="scale(0.015625)"/>
       </defs>
       <use xlink:href="#DejaVuSansMono-35"/>
      </g>
     </g>
    </g>
    <g id="ytick_6">
     <g id="line2d_14">
      <g>
       <use xlink:href="#m195f7d1be8" x="34.020313" y="81.084327" style="fill: #edeae2; stroke: #edeae2; stroke-width: 0.8"/>
      </g>
     </g>
     <g id="text_14">
      <!-- 6 -->
      <g style="fill: #edeae2" transform="translate(21 84.910108) scale(0.1 -0.1)">
       <use xlink:href="#DejaVuSansMono-36"/>
      </g>
     </g>
    </g>
    <g id="ytick_7">
     <g id="line2d_15">
      <g>
       <use xlink:href="#m195f7d1be8" x="34.020313" y="39.959024" style="fill: #edeae2; stroke: #edeae2; stroke-width: 0.8"/>
      </g>
     </g>
     <g id="text_15">
      <!-- 7 -->
      <g style="fill: #edeae2" transform="translate(21 43.784805) scale(0.1 -0.1)">
       <defs>
        <path id="DejaVuSansMono-37" d="M 434 4666 
L 3372 4666 
L 3372 4397 
L 1703 0 
L 1044 0 
L 2669 4134 
L 434 4134 
L 434 4666 
z
" transform="scale(0.015625)"/>
       </defs>
       <use xlink:href="#DejaVuSansMono-37"/>
      </g>
     </g>
    </g>
    <g id="text_16">
     <!-- Diesel price ($/gal) -->
     <g style="fill: #e0a458" transform="translate(14.851562 228.431967) rotate(-90) scale(0.1 -0.1)">
      <defs>
       <path id="DejaVuSansMono-44" d="M 1363 519 
Q 2159 519 2475 911 
Q 2791 1303 2791 2328 
Q 2791 3363 2477 3755 
Q 2163 4147 1363 4147 
L 1063 4147 
L 1063 519 
L 1363 519 
z
M 1375 4666 
Q 2444 4666 2950 4097 
Q 3456 3528 3456 2328 
Q 3456 1134 2950 567 
Q 2444 0 1375 0 
L 428 0 
L 428 4666 
L 1375 4666 
z
" transform="scale(0.015625)"/>
       <path id="DejaVuSansMono-69" d="M 800 3500 
L 2272 3500 
L 2272 447 
L 3413 447 
L 3413 0 
L 556 0 
L 556 447 
L 1697 447 
L 1697 3053 
L 800 3053 
L 800 3500 
z
M 1697 4863 
L 2272 4863 
L 2272 4134 
L 1697 4134 
L 1697 4863 
z
" transform="scale(0.015625)"/>
       <path id="DejaVuSansMono-65" d="M 3475 1894 
L 3475 1613 
L 984 1613 
L 984 1594 
Q 984 1022 1282 709 
Q 1581 397 2125 397 
Q 2400 397 2700 484 
Q 3000 572 3341 750 
L 3341 178 
Q 3013 44 2708 -23 
Q 2403 -91 2119 -91 
Q 1303 -91 843 398 
Q 384 888 384 1747 
Q 384 2584 834 3084 
Q 1284 3584 2034 3584 
Q 2703 3584 3089 3131 
Q 3475 2678 3475 1894 
z
M 2900 2063 
Q 2888 2569 2661 2833 
Q 2434 3097 2009 3097 
Q 1594 3097 1325 2822 
Q 1056 2547 1006 2059 
L 2900 2063 
z
" transform="scale(0.015625)"/>
       <path id="DejaVuSansMono-73" d="M 3041 3378 
L 3041 2816 
Q 2794 2959 2544 3031 
Q 2294 3103 2034 3103 
Q 1644 3103 1451 2976 
Q 1259 2850 1259 2591 
Q 1259 2356 1403 2240 
Q 1547 2125 2119 2016 
L 2350 1972 
Q 2778 1891 2998 1647 
Q 3219 1403 3219 1013 
Q 3219 494 2850 201 
Q 2481 -91 1825 -91 
Q 1566 -91 1281 -36 
Q 997 19 666 128 
L 666 722 
Q 988 556 1281 473 
Q 1575 391 1838 391 
Q 2219 391 2428 545 
Q 2638 700 2638 978 
Q 2638 1378 1872 1531 
L 1847 1538 
L 1631 1581 
Q 1134 1678 906 1908 
Q 678 2138 678 2534 
Q 678 3038 1018 3311 
Q 1359 3584 1991 3584 
Q 2272 3584 2531 3532 
Q 2791 3481 3041 3378 
z
" transform="scale(0.015625)"/>
       <path id="DejaVuSansMono-6c" d="M 1997 1269 
Q 1997 881 2139 684 
Q 2281 488 2559 488 
L 3231 488 
L 3231 0 
L 2503 0 
Q 1988 0 1705 331 
Q 1422 663 1422 1269 
L 1422 4447 
L 500 4447 
L 500 4897 
L 1997 4897 
L 1997 1269 
z
" transform="scale(0.015625)"/>
       <path id="DejaVuSansMono-20" transform="scale(0.015625)"/>
       <path id="DejaVuSansMono-70" d="M 1172 441 
L 1172 -1331 
L 594 -1331 
L 594 3500 
L 1172 3500 
L 1172 3053 
Q 1316 3313 1555 3448 
Q 1794 3584 2106 3584 
Q 2741 3584 3102 3093 
Q 3463 2603 3463 1734 
Q 3463 881 3100 395 
Q 2738 -91 2106 -91 
Q 1788 -91 1548 45 
Q 1309 181 1172 441 
z
M 2859 1747 
Q 2859 2416 2648 2756 
Q 2438 3097 2022 3097 
Q 1603 3097 1387 2755 
Q 1172 2413 1172 1747 
Q 1172 1084 1387 740 
Q 1603 397 2022 397 
Q 2438 397 2648 737 
Q 2859 1078 2859 1747 
z
" transform="scale(0.015625)"/>
       <path id="DejaVuSansMono-72" d="M 3609 2778 
Q 3425 2922 3234 2987 
Q 3044 3053 2816 3053 
Q 2278 3053 1993 2715 
Q 1709 2378 1709 1741 
L 1709 0 
L 1131 0 
L 1131 3500 
L 1709 3500 
L 1709 2816 
Q 1853 3188 2151 3386 
Q 2450 3584 2859 3584 
Q 3072 3584 3256 3531 
Q 3441 3478 3609 3366 
L 3609 2778 
z
" transform="scale(0.015625)"/>
       <path id="DejaVuSansMono-63" d="M 3316 178 
Q 3084 44 2839 -23 
Q 2594 -91 2338 -91 
Q 1525 -91 1067 396 
Q 609 884 609 1747 
Q 609 2609 1067 3096 
Q 1525 3584 2338 3584 
Q 2591 3584 2831 3518 
Q 3072 3453 3316 3316 
L 3316 2713 
Q 3088 2916 2858 3006 
Q 2628 3097 2338 3097 
Q 1797 3097 1506 2747 
Q 1216 2397 1216 1747 
Q 1216 1100 1508 748 
Q 1800 397 2338 397 
Q 2638 397 2875 489 
Q 3113 581 3316 775 
L 3316 178 
z
" transform="scale(0.015625)"/>
       <path id="DejaVuSansMono-28" d="M 2766 4856 
Q 2350 4144 2145 3436 
Q 1941 2728 1941 2009 
Q 1941 1294 2145 584 
Q 2350 -125 2766 -844 
L 2266 -844 
Q 1794 -100 1562 604 
Q 1331 1309 1331 2009 
Q 1331 2706 1562 3412 
Q 1794 4119 2266 4856 
L 2766 4856 
z
" transform="scale(0.015625)"/>
       <path id="DejaVuSansMono-24" d="M 2163 1813 
L 2163 456 
Q 2506 466 2700 647 
Q 2894 828 2894 1141 
Q 2894 1431 2719 1592 
Q 2544 1753 2163 1813 
z
M 1850 2406 
L 1850 3697 
Q 1525 3684 1342 3509 
Q 1159 3334 1159 3041 
Q 1159 2772 1329 2615 
Q 1500 2459 1850 2406 
z
M 2163 -941 
L 1850 -941 
L 1847 0 
Q 1528 16 1214 87 
Q 900 159 594 288 
L 594 850 
Q 906 656 1223 553 
Q 1541 450 1850 444 
L 1850 1875 
Q 1225 1972 909 2256 
Q 594 2541 594 3009 
Q 594 3500 923 3792 
Q 1253 4084 1850 4128 
L 1850 4863 
L 2163 4863 
L 2166 4128 
Q 2413 4113 2666 4066 
Q 2919 4019 3181 3938 
L 3181 3397 
Q 2916 3531 2664 3604 
Q 2413 3678 2163 3691 
L 2163 2344 
Q 2806 2247 3143 1944 
Q 3481 1641 3481 1159 
Q 3481 678 3117 356 
Q 2753 34 2166 6 
L 2163 -941 
z
" transform="scale(0.015625)"/>
       <path id="DejaVuSansMono-2f" d="M 2778 4666 
L 3372 4666 
L 916 -594 
L 319 -594 
L 2778 4666 
z
" transform="scale(0.015625)"/>
       <path id="DejaVuSansMono-67" d="M 2681 1778 
Q 2681 2425 2470 2761 
Q 2259 3097 1856 3097 
Q 1434 3097 1212 2761 
Q 991 2425 991 1778 
Q 991 1131 1214 792 
Q 1438 453 1863 453 
Q 2259 453 2470 793 
Q 2681 1134 2681 1778 
z
M 3256 225 
Q 3256 -563 2884 -969 
Q 2513 -1375 1791 -1375 
Q 1553 -1375 1293 -1331 
Q 1034 -1288 775 -1203 
L 775 -634 
Q 1081 -778 1331 -847 
Q 1581 -916 1791 -916 
Q 2256 -916 2468 -662 
Q 2681 -409 2681 141 
L 2681 166 
L 2681 556 
Q 2544 263 2306 119 
Q 2069 -25 1728 -25 
Q 1116 -25 750 465 
Q 384 956 384 1778 
Q 384 2603 750 3093 
Q 1116 3584 1728 3584 
Q 2066 3584 2300 3450 
Q 2534 3316 2681 3034 
L 2681 3488 
L 3256 3488 
L 3256 225 
z
" transform="scale(0.015625)"/>
       <path id="DejaVuSansMono-61" d="M 2194 1759 
L 2003 1759 
Q 1500 1759 1245 1582 
Q 991 1406 991 1056 
Q 991 741 1181 566 
Q 1372 391 1709 391 
Q 2184 391 2456 720 
Q 2728 1050 2731 1631 
L 2731 1759 
L 2194 1759 
z
M 3309 1997 
L 3309 0 
L 2731 0 
L 2731 519 
Q 2547 206 2267 57 
Q 1988 -91 1588 -91 
Q 1053 -91 734 211 
Q 416 513 416 1019 
Q 416 1603 808 1906 
Q 1200 2209 1959 2209 
L 2731 2209 
L 2731 2300 
Q 2728 2719 2518 2908 
Q 2309 3097 1850 3097 
Q 1556 3097 1256 3012 
Q 956 2928 672 2766 
L 672 3341 
Q 991 3463 1283 3523 
Q 1575 3584 1850 3584 
Q 2284 3584 2592 3456 
Q 2900 3328 3091 3072 
Q 3209 2916 3259 2686 
Q 3309 2456 3309 1997 
z
" transform="scale(0.015625)"/>
       <path id="DejaVuSansMono-29" d="M 1088 4856 
L 1588 4856 
Q 2059 4119 2290 3412 
Q 2522 2706 2522 2009 
Q 2522 1306 2290 600 
Q 2059 -106 1588 -844 
L 1088 -844 
Q 1503 -119 1708 590 
Q 1913 1300 1913 2009 
Q 1913 2722 1708 3431 
Q 1503 4141 1088 4856 
z
" transform="scale(0.015625)"/>
      </defs>
      <use xlink:href="#DejaVuSansMono-44"/>
      <use xlink:href="#DejaVuSansMono-69" x="60.205078"/>
      <use xlink:href="#DejaVuSansMono-65" x="120.410156"/>
      <use xlink:href="#DejaVuSansMono-73" x="180.615234"/>
      <use xlink:href="#DejaVuSansMono-65" x="240.820312"/>
      <use xlink:href="#DejaVuSansMono-6c" x="301.025391"/>
      <use xlink:href="#DejaVuSansMono-20" x="361.230469"/>
      <use xlink:href="#DejaVuSansMono-70" x="421.435547"/>
      <use xlink:href="#DejaVuSansMono-72" x="481.640625"/>
      <use xlink:href="#DejaVuSansMono-69" x="541.845703"/>
      <use xlink:href="#DejaVuSansMono-63" x="602.050781"/>
      <use xlink:href="#DejaVuSansMono-65" x="662.255859"/>
      <use xlink:href="#DejaVuSansMono-20" x="722.460938"/>
      <use xlink:href="#DejaVuSansMono-28" x="782.666016"/>
      <use xlink:href="#DejaVuSansMono-24" x="842.871094"/>
      <use xlink:href="#DejaVuSansMono-2f" x="903.076172"/>
      <use xlink:href="#DejaVuSansMono-67" x="963.28125"/>
      <use xlink:href="#DejaVuSansMono-61" x="1023.486328"/>
      <use xlink:href="#DejaVuSansMono-6c" x="1083.691406"/>
      <use xlink:href="#DejaVuSansMono-29" x="1143.896484"/>
     </g>
    </g>
   </g>
   <g id="line2d_16">
    <path d="M 72.571222 277.889461 
L 74.60557 277.889461 
L 76.574295 278.411752 
L 78.608644 278.609153 
L 80.577368 278.598872 
L 82.611717 278.288376 
L 84.646066 276.964141 
L 86.61479 276.273236 
L 88.649139 275.771508 
L 90.617864 276.943579 
L 92.652213 278.444652 
L 94.686561 278.907312 
L 96.524038 278.516622 
L 100.527111 276.010034 
L 102.56146 277.025829 
L 104.530184 277.835998 
L 106.564533 277.622146 
L 108.598882 277.025829 
L 110.567607 276.281461 
L 114.57068 276.121073 
L 116.605029 276.141635 
L 118.639377 277.10808 
L 120.542478 277.077236 
L 122.576827 270.951622 
L 124.545551 266.939849 
L 128.548625 272.645985 
L 130.582973 272.800205 
L 132.617322 269.717863 
L 134.586047 269.232585 
L 136.620396 270.055091 
L 138.58912 271.650752 
L 140.623469 271.772072 
L 142.657818 269.828901 
L 144.495294 270.852921 
L 146.529643 271.175755 
L 148.498367 275.391099 
L 150.532716 277.342494 
L 152.501441 278.526903 
L 154.53579 276.511763 
L 156.570138 275.171078 
L 158.538863 275.391099 
L 160.573212 274.044245 
L 162.541936 275.952459 
L 164.576285 277.745522 
L 166.610634 280.685981 
L 168.44811 282.516057 
L 170.482459 281.313142 
L 172.451184 280.82992 
L 174.485532 282.746359 
L 176.454257 283.009561 
L 178.488606 283.017786 
L 180.522954 282.577745 
L 182.491679 282.3824 
L 184.526028 282.697009 
L 186.494752 284.078819 
L 188.529101 284.55176 
L 190.56345 285.148077 
L 192.400926 281.471475 
L 194.435275 274.969564 
L 196.404 277.210893 
L 198.438348 275.113503 
L 200.407073 273.992838 
L 202.441422 272.415683 
L 204.475771 273.8489 
L 206.444495 273.602148 
L 208.478844 271.395775 
L 210.447569 271.576727 
L 212.481917 269.207909 
L 214.516266 267.309977 
L 216.419367 262.333815 
L 218.453715 265.521026 
L 220.42244 267.554672 
L 222.456789 267.967982 
L 224.425513 265.490182 
L 226.459862 262.035657 
L 228.494211 252.278679 
L 230.462935 251.894157 
L 232.497284 254.478882 
L 234.466009 255.178013 
L 236.500358 261.1967 
L 238.534706 263.557293 
L 240.372183 264.986397 
L 244.375256 263.577855 
L 246.409605 263.115196 
L 248.378329 266.394939 
L 250.412678 267.772636 
L 252.447027 262.580567 
L 254.415751 268.870682 
L 256.4501 272.358108 
L 258.418825 277.202668 
L 260.453174 277.529614 
L 262.487522 277.41652 
L 264.324999 273.036675 
L 266.359347 270.367643 
L 268.328072 270.918722 
L 270.362421 270.805627 
L 272.331145 270.910497 
L 274.365494 268.913863 
L 276.399843 264.659451 
L 278.368568 265.00696 
L 280.402916 265.870591 
L 282.371641 266.296238 
L 284.40599 264.739645 
L 288.277815 253.160816 
L 290.312164 261.490746 
L 292.280888 266.127624 
L 294.315237 265.029579 
L 296.283962 262.745068 
L 298.31831 259.321387 
L 300.352659 261.558603 
L 302.321384 263.372229 
L 304.355732 262.416066 
L 306.324457 260.851248 
L 308.358806 260.596271 
L 310.393155 256.16502 
L 312.296255 252.914065 
L 314.330604 244.290089 
L 316.299328 237.738828 
L 318.333677 245.69863 
L 320.302402 244.413465 
L 322.336751 243.882948 
L 324.371099 242.141292 
L 326.339824 232.929224 
L 328.374173 233.716773 
L 330.342897 241.832852 
L 332.377246 244.787705 
L 334.411595 234.934082 
L 336.249071 226.606209 
L 338.28342 222.668461 
L 340.252145 228.609011 
L 342.286493 229.885952 
L 344.255218 224.477974 
L 346.289567 211.838113 
L 348.323915 202.352562 
L 350.29264 199.426496 
L 352.326989 216.509947 
L 354.295713 224.344317 
L 356.330062 221.658835 
L 358.364411 220.057004 
L 360.201887 216.283758 
L 362.236236 209.888773 
L 364.204961 197.830835 
L 366.239309 199.39154 
L 368.208034 202.157217 
L 370.242383 196.266017 
L 372.276732 201.972153 
L 374.245456 217.858857 
L 376.279805 217.178233 
L 378.24853 209.251331 
L 380.282878 214.264506 
L 382.317227 214.011585 
L 384.154703 212.459105 
L 386.189052 207.199179 
L 388.157777 207.400693 
L 390.192125 206.362279 
L 392.16085 203.563702 
L 394.195199 203.874198 
L 396.229548 204.398545 
L 398.198272 194.565486 
L 400.232621 180.926279 
L 402.201346 185.962072 
L 404.235694 188.812056 
L 406.270043 186.622134 
L 408.173144 165.440547 
L 410.207492 155.161277 
L 412.176217 140.201949 
L 414.210566 128.48535 
L 416.17929 128.316736 
L 420.247988 160.50551 
L 422.216713 182.509603 
L 424.251061 211.266471 
L 426.219786 230.583025 
L 430.288483 234.101295 
L 432.12596 238.775186 
L 434.160308 232.332907 
L 436.129033 231.613214 
L 438.163382 219.676595 
L 440.132106 219.275624 
L 442.166455 215.366664 
L 444.200804 213.651739 
L 446.169529 212.89092 
L 448.203877 208.556314 
L 450.172602 210.577622 
L 452.206951 207.123097 
L 454.2413 209.600896 
L 456.078776 204.312182 
L 458.113125 197.119367 
L 460.081849 197.107029 
L 462.116198 201.33471 
L 464.084923 202.033841 
L 466.119271 200.026926 
L 468.15362 199.874762 
L 470.122345 195.248166 
L 472.156693 192.451645 
L 474.125418 189.521467 
L 476.159767 184.21836 
L 478.194116 174.4182 
L 480.031592 159.263526 
L 482.065941 151.603939 
L 484.034665 153.094731 
L 486.069014 157.844703 
L 488.037739 162.841428 
L 490.072087 166.830582 
L 492.106436 164.373345 
L 494.075161 163.310256 
L 496.10951 157.032479 
L 498.078234 161.936671 
L 500.112583 162.413724 
L 502.146932 156.682913 
L 504.050032 146.298775 
L 506.084381 147.748442 
L 508.053106 153.197544 
L 510.087454 165.082756 
L 512.056179 170.021905 
L 514.090528 155.952939 
L 516.124876 147.203531 
L 518.093601 151.400368 
L 520.12795 158.266238 
L 522.096674 162.380824 
L 524.131023 163.036773 
L 526.165372 152.714322 
L 528.002848 155.41831 
L 530.037197 161.377367 
L 532.005922 164.507002 
L 534.04027 165.082756 
L 536.008995 163.474757 
L 540.077693 158.449245 
L 544.080766 164.373345 
L 546.049491 163.474757 
L 548.083839 163.591964 
L 551.955664 162.52065 
L 553.990013 162.841428 
L 555.958738 161.957234 
L 557.993087 162.216323 
L 559.961811 161.669356 
L 561.99616 162.748896 
L 564.030509 163.162205 
L 565.999233 168.90741 
L 568.033582 173.061065 
L 570.002307 185.106666 
L 572.036655 201.386117 
L 574.071004 205.776243 
L 575.90848 202.790546 
L 577.942829 206.280028 
L 579.911554 198.425095 
L 581.945903 199.93645 
L 583.914627 203.771385 
L 585.948976 212.084864 
L 587.983325 215.923911 
L 589.952049 216.479103 
L 591.986398 217.743706 
L 595.989471 229.402729 
L 598.02382 236.743596 
L 601.961269 230.924365 
L 603.929994 222.958394 
L 605.964343 216.68473 
L 607.933067 217.147389 
L 609.967416 220.178324 
L 612.001765 218.6279 
L 613.97049 215.769692 
L 616.004838 214.947186 
L 617.973563 213.333017 
L 620.007912 210.497428 
L 622.042261 209.827085 
L 623.879737 210.927187 
L 625.914086 210.084119 
L 627.88281 210.999157 
L 629.917159 212.89092 
L 631.885884 213.466675 
L 633.920232 209.415832 
L 635.954581 200.841207 
L 637.923306 200.388829 
L 639.957654 189.243872 
L 641.926379 190.518756 
L 643.960728 188.133488 
L 645.995077 187.105356 
L 647.832553 188.010113 
L 649.866902 181.216213 
L 651.835626 174.212574 
L 653.869975 173.194722 
L 655.8387 174.241361 
L 657.873048 175.096768 
L 659.907397 173.595694 
L 661.876122 169.3639 
L 663.910471 172.115183 
L 665.879195 178.962546 
L 667.913544 184.822902 
L 669.947893 185.73794 
L 671.785369 183.578861 
L 673.819718 178.066014 
L 675.788442 172.269403 
L 677.822791 175.960399 
L 679.791516 179.020121 
L 681.825865 180.761778 
L 683.860213 180.015354 
L 685.828938 176.762342 
L 687.863287 173.821883 
L 689.832011 178.271641 
L 691.86636 180.319681 
L 693.900709 184.668682 
L 695.803809 191.966367 
L 697.838158 204.192919 
L 699.806883 208.69614 
L 703.809956 206.290309 
L 705.844305 206.105246 
L 707.878654 206.639874 
L 709.847378 207.493224 
L 711.881727 205.33209 
L 713.850452 201.09824 
L 715.8848 198.435377 
L 717.919149 191.94786 
L 719.756625 178.863845 
L 721.790974 177.800756 
L 723.759699 174.817116 
L 725.794048 171.189864 
L 727.762772 166.789457 
L 729.797121 163.17043 
L 731.83147 162.368487 
L 733.800194 156.045471 
L 735.834543 146.967061 
L 737.803268 147.234375 
L 739.837616 144.655819 
L 741.871965 135.955761 
L 743.709441 92.075064 
L 745.74379 89.011229 
L 747.712515 77.942353 
L 749.746864 61.961061 
L 751.715588 73.147143 
L 753.749937 95.552208 
L 755.784286 96.197875 
L 757.75301 87.746626 
L 759.787359 91.951688 
L 761.756084 111.97971 
L 763.790433 118.705753 
L 765.824781 121.962877 
L 769.696606 134.47525 
L 771.665331 138.454123 
L 773.69968 145.435143 
L 775.668404 141.579646 
L 777.702753 117.696127 
L 779.737102 98.490611 
L 781.705826 100.511919 
L 783.740175 117.449375 
L 785.7089 132.285328 
L 787.743249 140.502163 
L 789.777597 135.709009 
L 791.680698 136.510953 
L 793.715047 135.682278 
L 795.683771 142.001181 
L 797.71812 146.442713 
L 799.686845 145.938928 
L 801.721193 150.678619 
L 803.755542 152.97958 
L 805.724267 153.557391 
L 807.758615 156.179129 
L 809.72734 158.383445 
L 811.761689 153.71161 
L 813.796038 150.277648 
L 815.633514 153.102956 
L 817.667863 152.303069 
L 819.636587 153.47514 
L 821.670936 149.952758 
L 823.639661 142.278776 
L 825.674009 143.306909 
L 827.708358 141.982674 
L 829.677083 144.119134 
L 831.711432 141.569365 
L 833.680156 151.276993 
L 835.714505 155.850126 
L 837.748854 146.874529 
L 839.58633 90.526696 
L 841.620679 51.309608 
L 843.589403 58.290628 
L 843.589403 58.290628 
" clip-path="url(#p682eda5647)" style="fill: none; stroke: #e0a458; stroke-width: 1.6; stroke-linecap: square"/>
   </g>
   <g id="patch_3">
    <path d="M 34.020313 296.84 
L 34.020313 39.617684 
" style="fill: none; stroke: #9ba096; stroke-width: 0.8; stroke-linejoin: miter; stroke-linecap: square"/>
   </g>
   <g id="patch_4">
    <path d="M 882.140312 296.84 
L 882.140312 39.617684 
" style="fill: none; stroke: #9ba096; stroke-width: 0.8; stroke-linejoin: miter; stroke-linecap: square"/>
   </g>
   <g id="patch_5">
    <path d="M 34.020312 296.84 
L 882.140312 296.84 
" style="fill: none; stroke: #9ba096; stroke-width: 0.8; stroke-linejoin: miter; stroke-linecap: square"/>
   </g>
  </g>
  <g id="axes_2">
   <g id="matplotlib.axis_3">
    <g id="ytick_8">
     <g id="line2d_17">
      <defs>
       <path id="me5d6a0272e" d="M 0 0 
L 3.5 0 
" style="stroke: #edeae2; stroke-width: 0.8"/>
      </defs>
      <g>
       <use xlink:href="#me5d6a0272e" x="882.140312" y="283.22325" style="fill: #edeae2; stroke: #edeae2; stroke-width: 0.8"/>
      </g>
     </g>
     <g id="text_17">
      <!-- 100 -->
      <g style="fill: #edeae2" transform="translate(889.140312 287.049031) scale(0.1 -0.1)">
       <use xlink:href="#DejaVuSansMono-31"/>
       <use xlink:href="#DejaVuSansMono-30" x="60.205078"/>
       <use xlink:href="#DejaVuSansMono-30" x="120.410156"/>
      </g>
     </g>
    </g>
    <g id="ytick_9">
     <g id="line2d_18">
      <g>
       <use xlink:href="#me5d6a0272e" x="882.140312" y="248.226397" style="fill: #edeae2; stroke: #edeae2; stroke-width: 0.8"/>
      </g>
     </g>
     <g id="text_18">
      <!-- 120 -->
      <g style="fill: #edeae2" transform="translate(889.140312 252.052178) scale(0.1 -0.1)">
       <use xlink:href="#DejaVuSansMono-31"/>
       <use xlink:href="#DejaVuSansMono-32" x="60.205078"/>
       <use xlink:href="#DejaVuSansMono-30" x="120.410156"/>
      </g>
     </g>
    </g>
    <g id="ytick_10">
     <g id="line2d_19">
      <g>
       <use xlink:href="#me5d6a0272e" x="882.140312" y="213.229545" style="fill: #edeae2; stroke: #edeae2; stroke-width: 0.8"/>
      </g>
     </g>
     <g id="text_19">
      <!-- 140 -->
      <g style="fill: #edeae2" transform="translate(889.140312 217.055326) scale(0.1 -0.1)">
       <use xlink:href="#DejaVuSansMono-31"/>
       <use xlink:href="#DejaVuSansMono-34" x="60.205078"/>
       <use xlink:href="#DejaVuSansMono-30" x="120.410156"/>
      </g>
     </g>
    </g>
    <g id="ytick_11">
     <g id="line2d_20">
      <g>
       <use xlink:href="#me5d6a0272e" x="882.140312" y="178.232692" style="fill: #edeae2; stroke: #edeae2; stroke-width: 0.8"/>
      </g>
     </g>
     <g id="text_20">
      <!-- 160 -->
      <g style="fill: #edeae2" transform="translate(889.140312 182.058474) scale(0.1 -0.1)">
       <use xlink:href="#DejaVuSansMono-31"/>
       <use xlink:href="#DejaVuSansMono-36" x="60.205078"/>
       <use xlink:href="#DejaVuSansMono-30" x="120.410156"/>
      </g>
     </g>
    </g>
    <g id="ytick_12">
     <g id="line2d_21">
      <g>
       <use xlink:href="#me5d6a0272e" x="882.140312" y="143.23584" style="fill: #edeae2; stroke: #edeae2; stroke-width: 0.8"/>
      </g>
     </g>
     <g id="text_21">
      <!-- 180 -->
      <g style="fill: #edeae2" transform="translate(889.140312 147.061621) scale(0.1 -0.1)">
       <use xlink:href="#DejaVuSansMono-31"/>
       <use xlink:href="#DejaVuSansMono-38" x="60.205078"/>
       <use xlink:href="#DejaVuSansMono-30" x="120.410156"/>
      </g>
     </g>
    </g>
    <g id="ytick_13">
     <g id="line2d_22">
      <g>
       <use xlink:href="#me5d6a0272e" x="882.140312" y="108.238988" style="fill: #edeae2; stroke: #edeae2; stroke-width: 0.8"/>
      </g>
     </g>
     <g id="text_22">
      <!-- 200 -->
      <g style="fill: #edeae2" transform="translate(889.140312 112.064769) scale(0.1 -0.1)">
       <use xlink:href="#DejaVuSansMono-32"/>
       <use xlink:href="#DejaVuSansMono-30" x="60.205078"/>
       <use xlink:href="#DejaVuSansMono-30" x="120.410156"/>
      </g>
     </g>
    </g>
    <g id="ytick_14">
     <g id="line2d_23">
      <g>
       <use xlink:href="#me5d6a0272e" x="882.140312" y="73.242135" style="fill: #edeae2; stroke: #edeae2; stroke-width: 0.8"/>
      </g>
     </g>
     <g id="text_23">
      <!-- 220 -->
      <g style="fill: #edeae2" transform="translate(889.140312 77.067916) scale(0.1 -0.1)">
       <use xlink:href="#DejaVuSansMono-32"/>
       <use xlink:href="#DejaVuSansMono-32" x="60.205078"/>
       <use xlink:href="#DejaVuSansMono-30" x="120.410156"/>
      </g>
     </g>
    </g>
    <g id="text_24">
     <!-- Freight PPI (index, 1992=100) -->
     <g style="fill: #7a9e7e" transform="translate(918.799688 255.523373) rotate(-90) scale(0.1 -0.1)">
      <defs>
       <path id="DejaVuSansMono-46" d="M 728 4666 
L 3475 4666 
L 3475 4134 
L 1363 4134 
L 1363 2759 
L 3278 2759 
L 3278 2228 
L 1363 2228 
L 1363 0 
L 728 0 
L 728 4666 
z
" transform="scale(0.015625)"/>
       <path id="DejaVuSansMono-68" d="M 3284 2169 
L 3284 0 
L 2706 0 
L 2706 2169 
Q 2706 2641 2540 2862 
Q 2375 3084 2022 3084 
Q 1619 3084 1401 2798 
Q 1184 2513 1184 1978 
L 1184 0 
L 609 0 
L 609 4863 
L 1184 4863 
L 1184 2975 
Q 1338 3275 1600 3429 
Q 1863 3584 2222 3584 
Q 2756 3584 3020 3232 
Q 3284 2881 3284 2169 
z
" transform="scale(0.015625)"/>
       <path id="DejaVuSansMono-74" d="M 1919 4494 
L 1919 3500 
L 3225 3500 
L 3225 3053 
L 1919 3053 
L 1919 1153 
Q 1919 766 2066 612 
Q 2213 459 2578 459 
L 3225 459 
L 3225 0 
L 2522 0 
Q 1875 0 1609 259 
Q 1344 519 1344 1153 
L 1344 3053 
L 409 3053 
L 409 3500 
L 1344 3500 
L 1344 4494 
L 1919 4494 
z
" transform="scale(0.015625)"/>
       <path id="DejaVuSansMono-50" d="M 1247 4147 
L 1247 2394 
L 1978 2394 
Q 2416 2394 2661 2625 
Q 2906 2856 2906 3272 
Q 2906 3688 2662 3917 
Q 2419 4147 1978 4147 
L 1247 4147 
z
M 616 4666 
L 1978 4666 
Q 2759 4666 3162 4311 
Q 3566 3956 3566 3272 
Q 3566 2581 3164 2228 
Q 2763 1875 1978 1875 
L 1247 1875 
L 1247 0 
L 616 0 
L 616 4666 
z
" transform="scale(0.015625)"/>
       <path id="DejaVuSansMono-49" d="M 628 4666 
L 3219 4666 
L 3219 4134 
L 2241 4134 
L 2241 531 
L 3219 531 
L 3219 0 
L 628 0 
L 628 531 
L 1606 531 
L 1606 4134 
L 628 4134 
L 628 4666 
z
" transform="scale(0.015625)"/>
       <path id="DejaVuSansMono-6e" d="M 3284 2169 
L 3284 0 
L 2706 0 
L 2706 2169 
Q 2706 2641 2540 2862 
Q 2375 3084 2022 3084 
Q 1619 3084 1401 2798 
Q 1184 2513 1184 1978 
L 1184 0 
L 609 0 
L 609 3500 
L 1184 3500 
L 1184 2975 
Q 1338 3275 1600 3429 
Q 1863 3584 2222 3584 
Q 2756 3584 3020 3232 
Q 3284 2881 3284 2169 
z
" transform="scale(0.015625)"/>
       <path id="DejaVuSansMono-64" d="M 2681 3053 
L 2681 4863 
L 3256 4863 
L 3256 0 
L 2681 0 
L 2681 441 
Q 2538 181 2298 45 
Q 2059 -91 1747 -91 
Q 1113 -91 748 401 
Q 384 894 384 1759 
Q 384 2613 750 3098 
Q 1116 3584 1747 3584 
Q 2063 3584 2303 3448 
Q 2544 3313 2681 3053 
z
M 991 1747 
Q 991 1078 1203 737 
Q 1416 397 1831 397 
Q 2247 397 2464 740 
Q 2681 1084 2681 1747 
Q 2681 2413 2464 2755 
Q 2247 3097 1831 3097 
Q 1416 3097 1203 2756 
Q 991 2416 991 1747 
z
" transform="scale(0.015625)"/>
       <path id="DejaVuSansMono-78" d="M 3494 3500 
L 2241 1825 
L 3616 0 
L 2950 0 
L 1925 1403 
L 903 0 
L 238 0 
L 1613 1825 
L 359 3500 
L 997 3500 
L 1925 2234 
L 2847 3500 
L 3494 3500 
z
" transform="scale(0.015625)"/>
       <path id="DejaVuSansMono-2c" d="M 1569 947 
L 2356 947 
L 2356 300 
L 1741 -897 
L 1259 -897 
L 1569 300 
L 1569 947 
z
" transform="scale(0.015625)"/>
       <path id="DejaVuSansMono-3d" d="M 275 1638 
L 3578 1638 
L 3578 1100 
L 275 1100 
L 275 1638 
z
M 275 2906 
L 3578 2906 
L 3578 2375 
L 275 2375 
L 275 2906 
z
" transform="scale(0.015625)"/>
      </defs>
      <use xlink:href="#DejaVuSansMono-46"/>
      <use xlink:href="#DejaVuSansMono-72" x="60.205078"/>
      <use xlink:href="#DejaVuSansMono-65" x="120.410156"/>
      <use xlink:href="#DejaVuSansMono-69" x="180.615234"/>
      <use xlink:href="#DejaVuSansMono-67" x="240.820312"/>
      <use xlink:href="#DejaVuSansMono-68" x="301.025391"/>
      <use xlink:href="#DejaVuSansMono-74" x="361.230469"/>
      <use xlink:href="#DejaVuSansMono-20" x="421.435547"/>
      <use xlink:href="#DejaVuSansMono-50" x="481.640625"/>
      <use xlink:href="#DejaVuSansMono-50" x="541.845703"/>
      <use xlink:href="#DejaVuSansMono-49" x="602.050781"/>
      <use xlink:href="#DejaVuSansMono-20" x="662.255859"/>
      <use xlink:href="#DejaVuSansMono-28" x="722.460938"/>
      <use xlink:href="#DejaVuSansMono-69" x="782.666016"/>
      <use xlink:href="#DejaVuSansMono-6e" x="842.871094"/>
      <use xlink:href="#DejaVuSansMono-64" x="903.076172"/>
      <use xlink:href="#DejaVuSansMono-65" x="963.28125"/>
      <use xlink:href="#DejaVuSansMono-78" x="1023.486328"/>
      <use xlink:href="#DejaVuSansMono-2c" x="1083.691406"/>
      <use xlink:href="#DejaVuSansMono-20" x="1143.896484"/>
      <use xlink:href="#DejaVuSansMono-31" x="1204.101562"/>
      <use xlink:href="#DejaVuSansMono-39" x="1264.306641"/>
      <use xlink:href="#DejaVuSansMono-39" x="1324.511719"/>
      <use xlink:href="#DejaVuSansMono-32" x="1384.716797"/>
      <use xlink:href="#DejaVuSansMono-3d" x="1444.921875"/>
      <use xlink:href="#DejaVuSansMono-31" x="1505.126953"/>
      <use xlink:href="#DejaVuSansMono-30" x="1565.332031"/>
      <use xlink:href="#DejaVuSansMono-30" x="1625.537109"/>
      <use xlink:href="#DejaVuSansMono-29" x="1685.742188"/>
     </g>
    </g>
   </g>
   <g id="line2d_24">
    <path d="M 72.571222 284.098171 
L 74.60557 284.973092 
L 76.574295 285.148077 
L 80.577368 283.048265 
L 84.646066 282.698297 
L 86.61479 280.948454 
L 88.649139 281.123439 
L 90.617864 279.54858 
L 92.652213 281.823376 
L 94.686561 279.54858 
L 96.524038 278.32369 
L 98.558386 279.723564 
L 100.527111 278.848643 
L 102.56146 278.148706 
L 104.530184 281.123439 
L 106.564533 276.923816 
L 108.598882 278.32369 
L 110.567607 277.798738 
L 112.601955 278.498675 
L 114.57068 280.77347 
L 116.605029 282.173344 
L 118.639377 279.723564 
L 120.542478 279.54858 
L 122.576827 279.54858 
L 124.545551 278.498675 
L 126.5799 278.498675 
L 128.548625 278.848643 
L 130.582973 279.023627 
L 132.617322 279.023627 
L 134.586047 277.798738 
L 136.620396 277.623753 
L 144.495294 277.623753 
L 146.529643 277.273785 
L 148.498367 277.0988 
L 150.532716 277.273785 
L 154.53579 276.923816 
L 156.570138 276.573848 
L 160.573212 276.223879 
L 162.541936 276.223879 
L 164.576285 275.173974 
L 170.482459 275.173974 
L 172.451184 275.698926 
L 174.485532 275.698926 
L 178.488606 275.348958 
L 180.522954 275.348958 
L 182.491679 274.998989 
L 184.526028 274.998989 
L 186.494752 275.173974 
L 188.529101 274.299052 
L 190.56345 274.124068 
L 194.435275 274.124068 
L 196.404 273.7741 
L 198.438348 273.599115 
L 200.407073 273.599115 
L 202.441422 273.424131 
L 204.475771 273.074162 
L 206.444495 273.424131 
L 208.478844 273.599115 
L 210.447569 273.249147 
L 212.481917 272.54921 
L 214.516266 272.024257 
L 216.419367 270.974351 
L 218.453715 270.09943 
L 220.42244 269.399493 
L 224.425513 269.049524 
L 226.459862 268.524572 
L 228.494211 267.124698 
L 232.497284 266.074792 
L 234.466009 266.074792 
L 236.500358 265.724823 
L 238.534706 266.424761 
L 240.372183 266.774729 
L 242.406531 266.249776 
L 244.375256 265.899808 
L 246.409605 265.899808 
L 248.378329 265.199871 
L 250.412678 265.374855 
L 252.447027 265.024886 
L 254.415751 265.724823 
L 256.4501 266.249776 
L 260.453174 267.64965 
L 264.324999 267.999619 
L 266.359347 266.949713 
L 268.328072 266.949713 
L 270.362421 266.599745 
L 272.331145 266.599745 
L 274.365494 266.074792 
L 276.399843 265.899808 
L 278.368568 265.374855 
L 280.402916 265.024886 
L 282.371641 265.199871 
L 284.40599 265.024886 
L 286.440338 264.324949 
L 288.277815 263.275044 
L 292.280888 262.575107 
L 294.315237 263.275044 
L 296.283962 261.525201 
L 298.31831 260.825264 
L 300.352659 260.475296 
L 302.321384 259.950343 
L 304.355732 259.775359 
L 306.324457 258.900437 
L 308.358806 258.375484 
L 310.393155 256.800626 
L 312.296255 256.625642 
L 316.299328 255.225768 
L 318.333677 254.000878 
L 320.302402 254.000878 
L 322.336751 252.950972 
L 326.339824 249.626271 
L 328.374173 248.226397 
L 330.342897 249.276303 
L 332.377246 248.051413 
L 334.411595 246.651539 
L 336.249071 245.251665 
L 340.252145 242.451917 
L 344.255218 242.451917 
L 346.289567 241.926964 
L 350.29264 236.502452 
L 352.326989 235.452546 
L 354.295713 237.027404 
L 356.330062 238.427279 
L 358.364411 238.427279 
L 360.201887 238.252294 
L 362.236236 237.552357 
L 364.204961 234.927593 
L 366.239309 234.227656 
L 368.208034 234.052672 
L 370.242383 232.827782 
L 372.276732 232.302829 
L 374.245456 233.177751 
L 376.279805 234.227656 
L 378.24853 234.577625 
L 380.282878 233.352735 
L 382.317227 234.227656 
L 384.154703 234.752609 
L 386.189052 233.702703 
L 388.157777 233.352735 
L 390.192125 233.877688 
L 392.16085 233.702703 
L 394.195199 233.002766 
L 398.198272 231.952861 
L 400.232621 230.028034 
L 402.201346 228.453176 
L 404.235694 228.278191 
L 406.270043 228.453176 
L 408.173144 227.228286 
L 410.207492 224.95349 
L 412.176217 219.528978 
L 414.210566 214.979387 
L 416.17929 213.404529 
L 418.213639 212.879576 
L 420.247988 217.429167 
L 422.216713 217.779136 
L 426.219786 230.028034 
L 428.254135 233.702703 
L 430.288483 235.802515 
L 432.12596 239.3022 
L 434.160308 240.877058 
L 436.129033 240.877058 
L 438.163382 240.177121 
L 440.132106 237.552357 
L 442.166455 238.427279 
L 444.200804 237.027404 
L 446.169529 238.777247 
L 448.203877 237.552357 
L 450.172602 238.602263 
L 452.206951 238.952231 
L 454.2413 238.427279 
L 456.078776 236.502452 
L 458.113125 235.977499 
L 460.081849 234.052672 
L 462.116198 233.177751 
L 464.084923 233.702703 
L 466.119271 233.002766 
L 468.15362 232.827782 
L 470.122345 231.777877 
L 472.156693 228.978128 
L 476.159767 227.228286 
L 478.194116 225.478443 
L 480.031592 221.803774 
L 482.065941 218.304088 
L 484.034665 216.904214 
L 486.069014 217.429167 
L 488.037739 217.779136 
L 490.072087 217.95412 
L 492.106436 216.379262 
L 494.075161 216.379262 
L 496.10951 213.754498 
L 498.078234 213.754498 
L 500.112583 212.004655 
L 502.146932 210.604781 
L 504.050032 207.28008 
L 508.053106 205.530237 
L 510.087454 208.155001 
L 512.056179 209.554875 
L 514.090528 206.580143 
L 516.124876 205.705222 
L 518.093601 206.405159 
L 520.12795 207.28008 
L 522.096674 206.930111 
L 524.131023 207.455064 
L 526.165372 207.105096 
L 528.002848 205.355253 
L 530.037197 206.230174 
L 532.005922 205.530237 
L 534.04027 206.05519 
L 538.043344 206.05519 
L 540.077693 207.28008 
L 542.046417 207.28008 
L 544.080766 206.230174 
L 546.049491 206.580143 
L 548.083839 205.530237 
L 550.118188 204.130363 
L 551.955664 203.255442 
L 553.990013 201.330615 
L 555.958738 199.05582 
L 557.993087 198.530867 
L 559.961811 198.880835 
L 561.99616 198.705851 
L 564.030509 198.705851 
L 565.999233 200.280709 
L 568.033582 199.755757 
L 570.002307 202.030552 
L 572.036655 206.230174 
L 574.071004 207.805033 
L 575.90848 207.455064 
L 577.942829 206.930111 
L 579.911554 206.930111 
L 581.945903 205.005284 
L 583.914627 205.355253 
L 585.948976 206.755127 
L 587.983325 207.455064 
L 589.952049 207.805033 
L 591.986398 207.455064 
L 593.955123 209.72986 
L 598.02382 215.154372 
L 599.926921 215.50434 
L 601.961269 214.629419 
L 603.929994 216.204277 
L 605.964343 216.554246 
L 607.933067 215.854309 
L 609.967416 215.854309 
L 612.001765 214.979387 
L 613.97049 213.404529 
L 617.973563 213.054561 
L 620.007912 212.704592 
L 622.042261 212.179639 
L 623.879737 213.404529 
L 625.914086 213.054561 
L 627.88281 213.754498 
L 629.917159 213.404529 
L 631.885884 213.404529 
L 633.920232 209.554875 
L 635.954581 208.50497 
L 637.923306 207.980017 
L 641.926379 200.280709 
L 643.960728 198.705851 
L 645.995077 196.781024 
L 647.832553 196.60604 
L 649.866902 196.081087 
L 655.8387 188.731748 
L 657.873048 187.15689 
L 659.907397 184.182157 
L 661.876122 181.557393 
L 663.910471 180.857456 
L 665.879195 180.682472 
L 667.913544 184.357142 
L 669.947893 187.331874 
L 671.785369 188.38178 
L 673.819718 189.256701 
L 675.788442 191.181528 
L 677.822791 188.731748 
L 681.825865 191.181528 
L 683.860213 189.606669 
L 685.828938 188.731748 
L 687.863287 188.206795 
L 689.832011 186.631937 
L 691.86636 190.656575 
L 693.900709 191.181528 
L 695.803809 198.005914 
L 699.806883 204.480332 
L 701.841231 202.205536 
L 703.809956 197.480961 
L 705.844305 190.481591 
L 707.878654 188.731748 
L 709.847378 183.307236 
L 711.881727 174.733007 
L 713.850452 169.833448 
L 715.8848 173.858086 
L 717.919149 163.534014 
L 719.756625 160.034329 
L 721.790974 149.710258 
L 723.759699 145.510635 
L 725.794048 145.510635 
L 727.762772 135.855004 
L 729.797121 131.508395 
L 731.83147 123.922827 
L 733.800194 111.120978 
L 735.834543 99.503773 
L 737.803268 97.920166 
L 739.837616 92.325919 
L 741.871965 83.517211 
L 743.709441 65.8508 
L 745.74379 61.840161 
L 747.712515 51.309608 
L 749.746864 65.224356 
L 751.715588 65.756308 
L 753.749937 82.089339 
L 755.784286 82.374564 
L 757.75301 91.477245 
L 759.787359 87.109638 
L 761.756084 88.548008 
L 763.790433 108.361477 
L 767.662258 129.158356 
L 771.665331 148.282386 
L 773.69968 152.0218 
L 775.668404 150.917649 
L 777.702753 151.932558 
L 779.737102 146.044337 
L 781.705826 146.985753 
L 783.740175 145.468639 
L 785.7089 149.192304 
L 787.743249 157.218832 
L 789.777597 151.90631 
L 791.680698 155.176766 
L 793.715047 153.523165 
L 795.683771 157.13834 
L 797.71812 157.423564 
L 799.686845 150.553682 
L 801.721193 152.095293 
L 803.755542 151.713827 
L 805.724267 150.830157 
L 807.758615 148.761843 
L 809.72734 143.619055 
L 811.761689 147.529954 
L 813.796038 146.4643 
L 815.633514 159.897841 
L 817.667863 160.622276 
L 819.636587 159.640615 
L 821.670936 159.386887 
L 823.639661 156.202174 
L 825.674009 154.510076 
L 827.708358 158.748195 
L 829.677083 158.447222 
L 831.711432 151.279866 
L 833.680156 152.490758 
L 835.714505 158.46997 
L 837.748854 149.79075 
L 839.58633 134.805098 
L 841.620679 113.815736 
L 843.589403 91.400252 
L 843.589403 91.400252 
" clip-path="url(#p682eda5647)" style="fill: none; stroke: #7a9e7e; stroke-width: 1.6; stroke-linecap: square"/>
   </g>
   <g id="patch_6">
    <path d="M 34.020313 296.84 
L 34.020313 39.617684 
" style="fill: none; stroke: #9ba096; stroke-width: 0.8; stroke-linejoin: miter; stroke-linecap: square"/>
   </g>
   <g id="patch_7">
    <path d="M 882.140312 296.84 
L 882.140312 39.617684 
" style="fill: none; stroke: #9ba096; stroke-width: 0.8; stroke-linejoin: miter; stroke-linecap: square"/>
   </g>
   <g id="patch_8">
    <path d="M 34.020312 296.84 
L 882.140312 296.84 
" style="fill: none; stroke: #9ba096; stroke-width: 0.8; stroke-linejoin: miter; stroke-linecap: square"/>
   </g>
  </g>
  <g id="text_25">
   <!-- West Coast Diesel Price vs. National Truck Freight PPI -->
   <g style="fill: #edeae2" transform="translate(252.797344 17.756406) scale(0.13 -0.13)">
    <defs>
     <path id="DejaVuSansMono-Bold-57" d="M 0 4666 
L 806 4666 
L 1141 1241 
L 1544 3456 
L 2309 3456 
L 2778 1241 
L 3041 4666 
L 3853 4666 
L 3316 0 
L 2456 0 
L 1925 2450 
L 1428 0 
L 575 0 
L 0 4666 
z
" transform="scale(0.015625)"/>
     <path id="DejaVuSansMono-Bold-65" d="M 3444 172 
Q 3125 41 2794 -25 
Q 2463 -91 2094 -91 
Q 1216 -91 752 379 
Q 288 850 288 1734 
Q 288 2591 734 3087 
Q 1181 3584 1953 3584 
Q 2731 3584 3161 3123 
Q 3591 2663 3591 1825 
L 3591 1453 
L 1219 1453 
Q 1222 1041 1462 837 
Q 1703 634 2181 634 
Q 2497 634 2803 725 
Q 3109 816 3444 1013 
L 3444 172 
z
M 2669 2141 
Q 2663 2503 2483 2689 
Q 2303 2875 1953 2875 
Q 1638 2875 1450 2683 
Q 1263 2491 1228 2138 
L 2669 2141 
z
" transform="scale(0.015625)"/>
     <path id="DejaVuSansMono-Bold-73" d="M 3097 3391 
L 3097 2591 
Q 2844 2753 2570 2836 
Q 2297 2919 2022 2919 
Q 1716 2919 1559 2830 
Q 1403 2741 1403 2566 
Q 1403 2316 2072 2159 
L 2106 2150 
L 2369 2088 
Q 2869 1969 3101 1705 
Q 3334 1441 3334 991 
Q 3334 450 2979 179 
Q 2625 -91 1913 -91 
Q 1597 -91 1265 -36 
Q 934 19 594 128 
L 594 928 
Q 897 756 1211 665 
Q 1525 575 1819 575 
Q 2141 575 2306 669 
Q 2472 763 2472 941 
Q 2472 1116 2355 1209 
Q 2238 1303 1797 1409 
L 1544 1466 
Q 1019 1584 778 1837 
Q 538 2091 538 2516 
Q 538 3022 903 3303 
Q 1269 3584 1931 3584 
Q 2228 3584 2523 3536 
Q 2819 3488 3097 3391 
z
" transform="scale(0.015625)"/>
     <path id="DejaVuSansMono-Bold-74" d="M 2156 4494 
L 2156 3500 
L 3353 3500 
L 3353 2797 
L 2156 2797 
L 2156 1141 
Q 2156 906 2270 804 
Q 2384 703 2650 703 
L 3353 703 
L 3353 0 
L 2584 0 
Q 1797 0 1519 251 
Q 1241 503 1241 1184 
L 1241 2797 
L 347 2797 
L 347 3500 
L 1241 3500 
L 1241 4494 
L 2156 4494 
z
" transform="scale(0.015625)"/>
     <path id="DejaVuSansMono-Bold-20" transform="scale(0.015625)"/>
     <path id="DejaVuSansMono-Bold-43" d="M 3378 134 
Q 3159 22 2918 -34 
Q 2678 -91 2413 -91 
Q 1469 -91 972 531 
Q 475 1153 475 2328 
Q 475 3506 972 4128 
Q 1469 4750 2413 4750 
Q 2678 4750 2922 4694 
Q 3166 4638 3378 4525 
L 3378 3500 
Q 3141 3719 2917 3820 
Q 2694 3922 2456 3922 
Q 1950 3922 1692 3520 
Q 1434 3119 1434 2328 
Q 1434 1541 1692 1139 
Q 1950 738 2456 738 
Q 2694 738 2917 839 
Q 3141 941 3378 1159 
L 3378 134 
z
" transform="scale(0.015625)"/>
     <path id="DejaVuSansMono-Bold-6f" d="M 1925 2841 
Q 1597 2841 1409 2552 
Q 1222 2263 1222 1747 
Q 1222 1231 1409 942 
Q 1597 653 1925 653 
Q 2256 653 2443 942 
Q 2631 1231 2631 1747 
Q 2631 2263 2443 2552 
Q 2256 2841 1925 2841 
z
M 306 1747 
Q 306 2594 745 3089 
Q 1184 3584 1925 3584 
Q 2669 3584 3108 3089 
Q 3547 2594 3547 1747 
Q 3547 900 3108 404 
Q 2669 -91 1925 -91 
Q 1184 -91 745 404 
Q 306 900 306 1747 
z
" transform="scale(0.015625)"/>
     <path id="DejaVuSansMono-Bold-61" d="M 2188 1644 
Q 1675 1644 1472 1512 
Q 1269 1381 1269 1063 
Q 1269 825 1409 684 
Q 1550 544 1791 544 
Q 2153 544 2353 817 
Q 2553 1091 2553 1581 
L 2553 1644 
L 2188 1644 
z
M 3463 1997 
L 3463 0 
L 2553 0 
L 2553 391 
Q 2388 159 2128 34 
Q 1869 -91 1556 -91 
Q 959 -91 626 225 
Q 294 541 294 1106 
Q 294 1719 691 2011 
Q 1088 2303 1919 2303 
L 2553 2303 
L 2553 2456 
Q 2553 2678 2392 2792 
Q 2231 2906 1919 2906 
Q 1591 2906 1283 2823 
Q 975 2741 641 2559 
L 641 3341 
Q 944 3466 1256 3525 
Q 1569 3584 1919 3584 
Q 2772 3584 3117 3237 
Q 3463 2891 3463 1997 
z
" transform="scale(0.015625)"/>
     <path id="DejaVuSansMono-Bold-44" d="M 1350 3834 
L 1350 831 
L 1600 831 
Q 2144 831 2375 1173 
Q 2606 1516 2606 2338 
Q 2606 3153 2375 3493 
Q 2144 3834 1600 3834 
L 1350 3834 
z
M 428 4666 
L 1416 4666 
Q 2559 4666 3062 4120 
Q 3566 3575 3566 2338 
Q 3566 1097 3062 548 
Q 2559 0 1416 0 
L 428 0 
L 428 4666 
z
" transform="scale(0.015625)"/>
     <path id="DejaVuSansMono-Bold-69" d="M 691 3500 
L 2503 3500 
L 2503 703 
L 3641 703 
L 3641 0 
L 447 0 
L 447 703 
L 1588 703 
L 1588 2797 
L 691 2797 
L 691 3500 
z
M 1588 5203 
L 2503 5203 
L 2503 4134 
L 1588 4134 
L 1588 5203 
z
" transform="scale(0.015625)"/>
     <path id="DejaVuSansMono-Bold-6c" d="M 1209 1459 
L 1209 4159 
L 281 4159 
L 281 4863 
L 2125 4863 
L 2125 1459 
Q 2125 1047 2253 875 
Q 2381 703 2688 703 
L 3419 703 
L 3419 0 
L 2431 0 
Q 1778 0 1493 337 
Q 1209 675 1209 1459 
z
" transform="scale(0.015625)"/>
     <path id="DejaVuSansMono-Bold-50" d="M 1428 3891 
L 1428 2522 
L 1806 2522 
Q 2259 2522 2442 2675 
Q 2625 2828 2625 3206 
Q 2625 3584 2442 3737 
Q 2259 3891 1806 3891 
L 1428 3891 
z
M 506 4666 
L 1772 4666 
Q 2738 4666 3161 4322 
Q 3584 3978 3584 3206 
Q 3584 2434 3161 2090 
Q 2738 1747 1772 1747 
L 1428 1747 
L 1428 0 
L 506 0 
L 506 4666 
z
" transform="scale(0.015625)"/>
     <path id="DejaVuSansMono-Bold-72" d="M 3597 2534 
Q 3447 2672 3245 2740 
Q 3044 2809 2803 2809 
Q 2513 2809 2295 2707 
Q 2078 2606 1959 2413 
Q 1884 2294 1854 2125 
Q 1825 1956 1825 1613 
L 1825 0 
L 909 0 
L 909 3500 
L 1825 3500 
L 1825 2956 
Q 1959 3256 2237 3420 
Q 2516 3584 2888 3584 
Q 3075 3584 3254 3539 
Q 3434 3494 3597 3406 
L 3597 2534 
z
" transform="scale(0.015625)"/>
     <path id="DejaVuSansMono-Bold-63" d="M 3316 178 
Q 3084 44 2818 -23 
Q 2553 -91 2247 -91 
Q 1438 -91 981 396 
Q 525 884 525 1747 
Q 525 2613 984 3102 
Q 1444 3591 2253 3591 
Q 2534 3591 2795 3525 
Q 3056 3459 3316 3322 
L 3316 2484 
Q 3116 2656 2877 2748 
Q 2638 2841 2381 2841 
Q 1934 2841 1693 2556 
Q 1453 2272 1453 1747 
Q 1453 1222 1693 940 
Q 1934 659 2381 659 
Q 2647 659 2878 748 
Q 3109 838 3316 1019 
L 3316 178 
z
" transform="scale(0.015625)"/>
     <path id="DejaVuSansMono-Bold-76" d="M 3603 3500 
L 2491 0 
L 1363 0 
L 250 3500 
L 1178 3500 
L 1925 769 
L 2675 3500 
L 3603 3500 
z
" transform="scale(0.015625)"/>
     <path id="DejaVuSansMono-Bold-2e" d="M 1403 1147 
L 2444 1147 
L 2444 0 
L 1403 0 
L 1403 1147 
z
" transform="scale(0.015625)"/>
     <path id="DejaVuSansMono-Bold-4e" d="M 372 4666 
L 1363 4666 
L 2663 1275 
L 2663 4666 
L 3475 4666 
L 3475 0 
L 2491 0 
L 1184 3391 
L 1184 0 
L 372 0 
L 372 4666 
z
" transform="scale(0.015625)"/>
     <path id="DejaVuSansMono-Bold-6e" d="M 3347 2272 
L 3347 0 
L 2438 0 
L 2438 2131 
Q 2438 2513 2330 2677 
Q 2222 2841 1978 2841 
Q 1731 2841 1589 2619 
Q 1447 2397 1447 2003 
L 1447 0 
L 538 0 
L 538 3500 
L 1447 3500 
L 1447 2975 
Q 1544 3266 1778 3425 
Q 2013 3584 2344 3584 
Q 2841 3584 3094 3254 
Q 3347 2925 3347 2272 
z
" transform="scale(0.015625)"/>
     <path id="DejaVuSansMono-Bold-54" d="M 2388 0 
L 1466 0 
L 1466 3859 
L 281 3859 
L 281 4666 
L 3572 4666 
L 3572 3859 
L 2388 3859 
L 2388 0 
z
" transform="scale(0.015625)"/>
     <path id="DejaVuSansMono-Bold-75" d="M 500 1222 
L 500 3500 
L 1416 3500 
L 1416 1363 
Q 1416 984 1522 821 
Q 1628 659 1875 659 
Q 2122 659 2261 878 
Q 2400 1097 2400 1491 
L 2400 3500 
L 3316 3500 
L 3316 0 
L 2400 0 
L 2400 519 
Q 2303 228 2070 68 
Q 1838 -91 1509 -91 
Q 1009 -91 754 240 
Q 500 572 500 1222 
z
" transform="scale(0.015625)"/>
     <path id="DejaVuSansMono-Bold-6b" d="M 544 4863 
L 1459 4863 
L 1459 2309 
L 2559 3500 
L 3669 3500 
L 2344 2194 
L 3744 0 
L 2731 0 
L 1772 1638 
L 1459 1338 
L 1459 0 
L 544 0 
L 544 4863 
z
" transform="scale(0.015625)"/>
     <path id="DejaVuSansMono-Bold-46" d="M 3475 3853 
L 1491 3853 
L 1491 2847 
L 3297 2847 
L 3297 2034 
L 1491 2034 
L 1491 0 
L 569 0 
L 569 4666 
L 3475 4666 
L 3475 3853 
z
" transform="scale(0.015625)"/>
     <path id="DejaVuSansMono-Bold-67" d="M 2509 1806 
Q 2509 2275 2331 2558 
Q 2153 2841 1863 2841 
Q 1575 2841 1398 2559 
Q 1222 2278 1222 1806 
Q 1222 1331 1398 1050 
Q 1575 769 1863 769 
Q 2153 769 2331 1051 
Q 2509 1334 2509 1806 
z
M 3425 263 
Q 3425 -578 3045 -951 
Q 2666 -1325 1813 -1325 
Q 1525 -1325 1244 -1283 
Q 963 -1241 672 -1153 
L 672 -313 
Q 931 -456 1200 -525 
Q 1469 -594 1753 -594 
Q 2141 -594 2325 -411 
Q 2509 -228 2509 159 
L 2509 538 
Q 2375 288 2153 166 
Q 1931 44 1613 44 
Q 1013 44 659 512 
Q 306 981 306 1784 
Q 306 2616 659 3103 
Q 1013 3591 1606 3591 
Q 1906 3591 2140 3450 
Q 2375 3309 2509 3053 
L 2509 3500 
L 3425 3500 
L 3425 263 
z
" transform="scale(0.015625)"/>
     <path id="DejaVuSansMono-Bold-68" d="M 3347 2272 
L 3347 0 
L 2438 0 
L 2438 2131 
Q 2438 2509 2330 2671 
Q 2222 2834 1978 2834 
Q 1728 2834 1587 2614 
Q 1447 2394 1447 2003 
L 1447 0 
L 538 0 
L 538 4863 
L 1447 4863 
L 1447 2975 
Q 1544 3266 1778 3425 
Q 2013 3584 2344 3584 
Q 2841 3584 3094 3254 
Q 3347 2925 3347 2272 
z
" transform="scale(0.015625)"/>
     <path id="DejaVuSansMono-Bold-49" d="M 538 3853 
L 538 4666 
L 3316 4666 
L 3316 3853 
L 2388 3853 
L 2388 813 
L 3316 813 
L 3316 0 
L 538 0 
L 538 813 
L 1466 813 
L 1466 3853 
L 538 3853 
z
" transform="scale(0.015625)"/>
    </defs>
    <use xlink:href="#DejaVuSansMono-Bold-57"/>
    <use xlink:href="#DejaVuSansMono-Bold-65" x="60.205078"/>
    <use xlink:href="#DejaVuSansMono-Bold-73" x="120.410156"/>
    <use xlink:href="#DejaVuSansMono-Bold-74" x="180.615234"/>
    <use xlink:href="#DejaVuSansMono-Bold-20" x="240.820312"/>
    <use xlink:href="#DejaVuSansMono-Bold-43" x="301.025391"/>
    <use xlink:href="#DejaVuSansMono-Bold-6f" x="361.230469"/>
    <use xlink:href="#DejaVuSansMono-Bold-61" x="421.435547"/>
    <use xlink:href="#DejaVuSansMono-Bold-73" x="481.640625"/>
    <use xlink:href="#DejaVuSansMono-Bold-74" x="541.845703"/>
    <use xlink:href="#DejaVuSansMono-Bold-20" x="602.050781"/>
    <use xlink:href="#DejaVuSansMono-Bold-44" x="662.255859"/>
    <use xlink:href="#DejaVuSansMono-Bold-69" x="722.460938"/>
    <use xlink:href="#DejaVuSansMono-Bold-65" x="782.666016"/>
    <use xlink:href="#DejaVuSansMono-Bold-73" x="842.871094"/>
    <use xlink:href="#DejaVuSansMono-Bold-65" x="903.076172"/>
    <use xlink:href="#DejaVuSansMono-Bold-6c" x="963.28125"/>
    <use xlink:href="#DejaVuSansMono-Bold-20" x="1023.486328"/>
    <use xlink:href="#DejaVuSansMono-Bold-50" x="1083.691406"/>
    <use xlink:href="#DejaVuSansMono-Bold-72" x="1143.896484"/>
    <use xlink:href="#DejaVuSansMono-Bold-69" x="1204.101562"/>
    <use xlink:href="#DejaVuSansMono-Bold-63" x="1264.306641"/>
    <use xlink:href="#DejaVuSansMono-Bold-65" x="1324.511719"/>
    <use xlink:href="#DejaVuSansMono-Bold-20" x="1384.716797"/>
    <use xlink:href="#DejaVuSansMono-Bold-76" x="1444.921875"/>
    <use xlink:href="#DejaVuSansMono-Bold-73" x="1505.126953"/>
    <use xlink:href="#DejaVuSansMono-Bold-2e" x="1565.332031"/>
    <use xlink:href="#DejaVuSansMono-Bold-20" x="1625.537109"/>
    <use xlink:href="#DejaVuSansMono-Bold-4e" x="1685.742188"/>
    <use xlink:href="#DejaVuSansMono-Bold-61" x="1745.947266"/>
    <use xlink:href="#DejaVuSansMono-Bold-74" x="1806.152344"/>
    <use xlink:href="#DejaVuSansMono-Bold-69" x="1866.357422"/>
    <use xlink:href="#DejaVuSansMono-Bold-6f" x="1926.5625"/>
    <use xlink:href="#DejaVuSansMono-Bold-6e" x="1986.767578"/>
    <use xlink:href="#DejaVuSansMono-Bold-61" x="2046.972656"/>
    <use xlink:href="#DejaVuSansMono-Bold-6c" x="2107.177734"/>
    <use xlink:href="#DejaVuSansMono-Bold-20" x="2167.382812"/>
    <use xlink:href="#DejaVuSansMono-Bold-54" x="2227.587891"/>
    <use xlink:href="#DejaVuSansMono-Bold-72" x="2287.792969"/>
    <use xlink:href="#DejaVuSansMono-Bold-75" x="2347.998047"/>
    <use xlink:href="#DejaVuSansMono-Bold-63" x="2408.203125"/>
    <use xlink:href="#DejaVuSansMono-Bold-6b" x="2468.408203"/>
    <use xlink:href="#DejaVuSansMono-Bold-20" x="2528.613281"/>
    <use xlink:href="#DejaVuSansMono-Bold-46" x="2588.818359"/>
    <use xlink:href="#DejaVuSansMono-Bold-72" x="2649.023438"/>
    <use xlink:href="#DejaVuSansMono-Bold-65" x="2709.228516"/>
    <use xlink:href="#DejaVuSansMono-Bold-69" x="2769.433594"/>
    <use xlink:href="#DejaVuSansMono-Bold-67" x="2829.638672"/>
    <use xlink:href="#DejaVuSansMono-Bold-68" x="2889.84375"/>
    <use xlink:href="#DejaVuSansMono-Bold-74" x="2950.048828"/>
    <use xlink:href="#DejaVuSansMono-Bold-20" x="3010.253906"/>
    <use xlink:href="#DejaVuSansMono-Bold-50" x="3070.458984"/>
    <use xlink:href="#DejaVuSansMono-Bold-50" x="3130.664062"/>
    <use xlink:href="#DejaVuSansMono-Bold-49" x="3190.869141"/>
   </g>
  </g>
  <g id="legend_1">
   <g id="patch_9">
    <path d="M 77.290312 73.44 
L 241.547344 73.44 
Q 243.347344 73.44 243.347344 71.64 
L 243.347344 45.9 
Q 243.347344 44.1 241.547344 44.1 
L 77.290312 44.1 
Q 75.490313 44.1 75.490313 45.9 
L 75.490313 71.64 
Q 75.490313 73.44 77.290312 73.44 
z
" style="fill: #21251f; opacity: 0.8; stroke: #9ba096; stroke-linejoin: miter"/>
   </g>
   <g id="line2d_25">
    <path d="M 79.090312 51.436406 
L 88.090312 51.436406 
L 97.090312 51.436406 
" style="fill: none; stroke: #e0a458; stroke-width: 1.6; stroke-linecap: square"/>
   </g>
   <g id="text_26">
    <!-- West Coast diesel ($/gal) -->
    <g style="fill: #edeae2" transform="translate(104.290312 54.586406) scale(0.09 -0.09)">
     <defs>
      <path id="DejaVuSansMono-57" d="M 0 4666 
L 616 4666 
L 1063 878 
L 1594 3384 
L 2253 3384 
L 2791 872 
L 3238 4666 
L 3853 4666 
L 3156 0 
L 2559 0 
L 1925 2772 
L 1294 0 
L 697 0 
L 0 4666 
z
" transform="scale(0.015625)"/>
      <path id="DejaVuSansMono-43" d="M 3353 166 
Q 3113 38 2859 -26 
Q 2606 -91 2322 -91 
Q 1425 -91 929 543 
Q 434 1178 434 2328 
Q 434 3472 932 4111 
Q 1431 4750 2322 4750 
Q 2606 4750 2859 4686 
Q 3113 4622 3353 4494 
L 3353 3847 
Q 3122 4038 2856 4138 
Q 2591 4238 2322 4238 
Q 1706 4238 1400 3763 
Q 1094 3288 1094 2328 
Q 1094 1372 1400 897 
Q 1706 422 2322 422 
Q 2597 422 2861 522 
Q 3125 622 3353 813 
L 3353 166 
z
" transform="scale(0.015625)"/>
      <path id="DejaVuSansMono-6f" d="M 1925 3097 
Q 1488 3097 1263 2756 
Q 1038 2416 1038 1747 
Q 1038 1081 1263 739 
Q 1488 397 1925 397 
Q 2366 397 2591 739 
Q 2816 1081 2816 1747 
Q 2816 2416 2591 2756 
Q 2366 3097 1925 3097 
z
M 1925 3584 
Q 2653 3584 3039 3112 
Q 3425 2641 3425 1747 
Q 3425 850 3040 379 
Q 2656 -91 1925 -91 
Q 1197 -91 812 379 
Q 428 850 428 1747 
Q 428 2641 812 3112 
Q 1197 3584 1925 3584 
z
" transform="scale(0.015625)"/>
     </defs>
     <use xlink:href="#DejaVuSansMono-57"/>
     <use xlink:href="#DejaVuSansMono-65" x="60.205078"/>
     <use xlink:href="#DejaVuSansMono-73" x="120.410156"/>
     <use xlink:href="#DejaVuSansMono-74" x="180.615234"/>
     <use xlink:href="#DejaVuSansMono-20" x="240.820312"/>
     <use xlink:href="#DejaVuSansMono-43" x="301.025391"/>
     <use xlink:href="#DejaVuSansMono-6f" x="361.230469"/>
     <use xlink:href="#DejaVuSansMono-61" x="421.435547"/>
     <use xlink:href="#DejaVuSansMono-73" x="481.640625"/>
     <use xlink:href="#DejaVuSansMono-74" x="541.845703"/>
     <use xlink:href="#DejaVuSansMono-20" x="602.050781"/>
     <use xlink:href="#DejaVuSansMono-64" x="662.255859"/>
     <use xlink:href="#DejaVuSansMono-69" x="722.460938"/>
     <use xlink:href="#DejaVuSansMono-65" x="782.666016"/>
     <use xlink:href="#DejaVuSansMono-73" x="842.871094"/>
     <use xlink:href="#DejaVuSansMono-65" x="903.076172"/>
     <use xlink:href="#DejaVuSansMono-6c" x="963.28125"/>
     <use xlink:href="#DejaVuSansMono-20" x="1023.486328"/>
     <use xlink:href="#DejaVuSansMono-28" x="1083.691406"/>
     <use xlink:href="#DejaVuSansMono-24" x="1143.896484"/>
     <use xlink:href="#DejaVuSansMono-2f" x="1204.101562"/>
     <use xlink:href="#DejaVuSansMono-67" x="1264.306641"/>
     <use xlink:href="#DejaVuSansMono-61" x="1324.511719"/>
     <use xlink:href="#DejaVuSansMono-6c" x="1384.716797"/>
     <use xlink:href="#DejaVuSansMono-29" x="1444.921875"/>
    </g>
   </g>
   <g id="line2d_26">
    <path d="M 79.090312 64.756406 
L 88.090312 64.756406 
L 97.090312 64.756406 
" style="fill: none; stroke: #7a9e7e; stroke-width: 1.6; stroke-linecap: square"/>
   </g>
   <g id="text_27">
    <!-- Truck freight PPI (index) -->
    <g style="fill: #edeae2" transform="translate(104.290312 67.906406) scale(0.09 -0.09)">
     <defs>
      <path id="DejaVuSansMono-54" d="M 147 4666 
L 3706 4666 
L 3706 4134 
L 2247 4134 
L 2247 0 
L 1613 0 
L 1613 4134 
L 147 4134 
L 147 4666 
z
" transform="scale(0.015625)"/>
      <path id="DejaVuSansMono-75" d="M 609 1325 
L 609 3494 
L 1184 3494 
L 1184 1325 
Q 1184 853 1351 631 
Q 1519 409 1869 409 
Q 2275 409 2490 695 
Q 2706 981 2706 1516 
L 2706 3494 
L 3284 3494 
L 3284 0 
L 2706 0 
L 2706 525 
Q 2553 222 2289 65 
Q 2025 -91 1672 -91 
Q 1134 -91 871 261 
Q 609 613 609 1325 
z
" transform="scale(0.015625)"/>
      <path id="DejaVuSansMono-6b" d="M 738 4863 
L 1331 4863 
L 1331 2047 
L 2841 3500 
L 3541 3500 
L 2163 2181 
L 3756 0 
L 3053 0 
L 1759 1806 
L 1331 1403 
L 1331 0 
L 738 0 
L 738 4863 
z
" transform="scale(0.015625)"/>
      <path id="DejaVuSansMono-66" d="M 3322 4863 
L 3322 4384 
L 2669 4384 
Q 2359 4384 2239 4257 
Q 2119 4131 2119 3809 
L 2119 3500 
L 3322 3500 
L 3322 3053 
L 2119 3053 
L 2119 0 
L 1544 0 
L 1544 3053 
L 609 3053 
L 609 3500 
L 1544 3500 
L 1544 3744 
Q 1544 4319 1808 4591 
Q 2072 4863 2631 4863 
L 3322 4863 
z
" transform="scale(0.015625)"/>
     </defs>
     <use xlink:href="#DejaVuSansMono-54"/>
     <use xlink:href="#DejaVuSansMono-72" x="60.205078"/>
     <use xlink:href="#DejaVuSansMono-75" x="120.410156"/>
     <use xlink:href="#DejaVuSansMono-63" x="180.615234"/>
     <use xlink:href="#DejaVuSansMono-6b" x="240.820312"/>
     <use xlink:href="#DejaVuSansMono-20" x="301.025391"/>
     <use xlink:href="#DejaVuSansMono-66" x="361.230469"/>
     <use xlink:href="#DejaVuSansMono-72" x="421.435547"/>
     <use xlink:href="#DejaVuSansMono-65" x="481.640625"/>
     <use xlink:href="#DejaVuSansMono-69" x="541.845703"/>
     <use xlink:href="#DejaVuSansMono-67" x="602.050781"/>
     <use xlink:href="#DejaVuSansMono-68" x="662.255859"/>
     <use xlink:href="#DejaVuSansMono-74" x="722.460938"/>
     <use xlink:href="#DejaVuSansMono-20" x="782.666016"/>
     <use xlink:href="#DejaVuSansMono-50" x="842.871094"/>
     <use xlink:href="#DejaVuSansMono-50" x="903.076172"/>
     <use xlink:href="#DejaVuSansMono-49" x="963.28125"/>
     <use xlink:href="#DejaVuSansMono-20" x="1023.486328"/>
     <use xlink:href="#DejaVuSansMono-28" x="1083.691406"/>
     <use xlink:href="#DejaVuSansMono-69" x="1143.896484"/>
     <use xlink:href="#DejaVuSansMono-6e" x="1204.101562"/>
     <use xlink:href="#DejaVuSansMono-64" x="1264.306641"/>
     <use xlink:href="#DejaVuSansMono-65" x="1324.511719"/>
     <use xlink:href="#DejaVuSansMono-78" x="1384.716797"/>
     <use xlink:href="#DejaVuSansMono-29" x="1444.921875"/>
    </g>
   </g>
  </g>
 </g>
 <defs>
  <clipPath id="p682eda5647">
   <rect x="34.020313" y="39.617684" width="848.12" height="257.222316"/>
  </clipPath>
 </defs>
</svg>
